<svg width="211" height="52" viewBox="0 0 211 52" fill="none" xmlns="http://www.w3.org/2000/svg">
<path d="M6.44358 0H0V7.06913H6.44358V0Z" fill="#545454"/>
<path d="M34.293 0H27.8494V7.06913H34.293V0Z" fill="#F89500"/>
<path d="M18.2386 17.1921H27.8465V28.2648C27.5034 34.3897 18.2386 34.444 18.2386 34.444V41.8155C33.582 41.8698 34.293 28.2648 34.293 28.2648V10.0645H18.2386V17.1921Z" fill="#F89500"/>
<path d="M0.121581 17.19H0.109222V28.2594C1.64011 42.6462 15.625 41.8065 15.625 41.8065V34.5977C7.32192 34.6788 6.55049 28.2577 6.55049 28.2577V17.1882H16.1636V10.0645H0.121581V17.19Z" fill="#545454"/>
<path d="M57.6528 10.5919V35.4747H53.3974V10.5919H57.6528ZM65.4628 10.5919V14.0098H45.6557V10.5919H65.4628ZM65.1552 26.4341V26.0411C65.1552 24.7081 65.3489 23.4719 65.7362 22.3326C66.1236 21.1819 66.6819 20.185 67.4111 19.3419C68.1516 18.4874 69.0517 17.8266 70.1112 17.3594C71.1822 16.8809 72.3899 16.6417 73.7343 16.6417C75.0901 16.6417 76.2978 16.8809 77.3573 17.3594C78.4283 17.8266 79.3341 18.4874 80.0746 19.3419C80.8152 20.185 81.3792 21.1819 81.7665 22.3326C82.1539 23.4719 82.3476 24.7081 82.3476 26.0411V26.4341C82.3476 27.7672 82.1539 29.0033 81.7665 30.1426C81.3792 31.282 80.8152 32.2789 80.0746 33.1334C79.3341 33.9765 78.434 34.6373 77.3744 35.1158C76.3149 35.5829 75.1129 35.8165 73.7685 35.8165C72.4127 35.8165 71.1993 35.5829 70.1283 35.1158C69.0688 34.6373 68.1687 33.9765 67.4281 33.1334C66.6876 32.2789 66.1236 31.282 65.7362 30.1426C65.3489 29.0033 65.1552 27.7672 65.1552 26.4341ZM69.2738 26.0411V26.4341C69.2738 27.2658 69.3593 28.052 69.5302 28.7925C69.7011 29.5331 69.9688 30.1825 70.3334 30.7408C70.698 31.2991 71.1651 31.7377 71.7348 32.0567C72.3044 32.3757 72.9823 32.5352 73.7685 32.5352C74.5318 32.5352 75.1926 32.3757 75.7509 32.0567C76.3206 31.7377 76.7877 31.2991 77.1523 30.7408C77.5168 30.1825 77.7846 29.5331 77.9555 28.7925C78.1378 28.052 78.2289 27.2658 78.2289 26.4341V26.0411C78.2289 25.2208 78.1378 24.446 77.9555 23.7169C77.7846 22.9763 77.5112 22.3212 77.1352 21.7515C76.7706 21.1819 76.3035 20.7375 75.7338 20.4185C75.1755 20.0881 74.509 19.9229 73.7343 19.9229C72.9596 19.9229 72.2874 20.0881 71.7177 20.4185C71.1594 20.7375 70.698 21.1819 70.3334 21.7515C69.9688 22.3212 69.7011 22.9763 69.5302 23.7169C69.3593 24.446 69.2738 25.2208 69.2738 26.0411ZM89.9355 20.5381V42.584H85.8168V16.9835H89.6108L89.9355 20.5381ZM101.984 26.0582V26.4171C101.984 27.7615 101.824 29.009 101.505 30.1597C101.198 31.2991 100.736 32.296 100.121 33.1505C99.5172 33.9936 98.7709 34.6487 97.8822 35.1158C96.9936 35.5829 95.9682 35.8165 94.8061 35.8165C93.6554 35.8165 92.6471 35.6057 91.7812 35.1841C90.9267 34.7512 90.2032 34.1417 89.6108 33.3555C89.0183 32.5694 88.5398 31.6465 88.1752 30.587C87.822 29.516 87.5714 28.3425 87.4233 27.0665V25.6822C87.5714 24.3264 87.822 23.0959 88.1752 21.9908C88.5398 20.8856 89.0183 19.9343 89.6108 19.1368C90.2032 18.3393 90.9267 17.724 91.7812 17.2911C92.6357 16.8581 93.6326 16.6417 94.7719 16.6417C95.934 16.6417 96.9651 16.8695 97.8652 17.3253C98.7652 17.7696 99.5229 18.4076 100.138 19.2393C100.753 20.0596 101.215 21.0508 101.522 22.213C101.83 23.3637 101.984 24.6454 101.984 26.0582ZM97.8652 26.4171V26.0582C97.8652 25.2037 97.7854 24.4118 97.6259 23.6827C97.4664 22.9421 97.2157 22.2927 96.8739 21.7344C96.5321 21.1762 96.0935 20.7432 95.558 20.4356C95.0339 20.1166 94.4016 19.9571 93.6611 19.9571C92.9319 19.9571 92.3053 20.0824 91.7812 20.3331C91.2571 20.5723 90.8184 20.9084 90.4653 21.3414C90.1121 21.7743 89.8386 22.2813 89.6449 22.8624C89.4513 23.432 89.3145 24.053 89.2348 24.7252V28.0406C89.3715 28.8609 89.6051 29.6129 89.9355 30.2964C90.2659 30.98 90.733 31.5269 91.3368 31.9371C91.9521 32.3358 92.7382 32.5352 93.6952 32.5352C94.4358 32.5352 95.0681 32.3757 95.5922 32.0567C96.1163 31.7377 96.5435 31.2991 96.8739 30.7408C97.2157 30.1711 97.4664 29.516 97.6259 28.7755C97.7854 28.0349 97.8652 27.2488 97.8652 26.4171Z" fill="#545454"/>
<path d="M117.518 28.0577V10.5919H119.621V28.0577C119.621 29.7325 119.29 31.1452 118.629 32.296C117.98 33.4467 117.091 34.324 115.963 34.9278C114.835 35.5202 113.548 35.8165 112.101 35.8165C110.62 35.8165 109.31 35.5544 108.17 35.0303C107.042 34.5062 106.165 33.7144 105.538 32.6548C104.912 31.5839 104.599 30.2338 104.599 28.6046H106.701C106.701 29.8008 106.911 30.8034 107.333 31.6124C107.766 32.4099 108.387 33.0137 109.196 33.4239C110.005 33.8227 110.973 34.022 112.101 34.022C113.115 34.022 114.026 33.7999 114.835 33.3555C115.656 32.8998 116.305 32.2333 116.784 31.356C117.274 30.4673 117.518 29.3679 117.518 28.0577ZM124.201 26.5196V25.9556C124.201 24.6112 124.394 23.3694 124.782 22.23C125.169 21.0907 125.722 20.1052 126.439 19.2735C127.169 18.4418 128.04 17.7981 129.054 17.3423C130.068 16.8752 131.196 16.6417 132.438 16.6417C133.691 16.6417 134.825 16.8752 135.839 17.3423C136.853 17.7981 137.724 18.4418 138.454 19.2735C139.183 20.1052 139.741 21.0907 140.128 22.23C140.516 23.3694 140.709 24.6112 140.709 25.9556V26.5196C140.709 27.864 140.516 29.1059 140.128 30.2452C139.741 31.3731 139.183 32.3529 138.454 33.1846C137.736 34.0163 136.87 34.6658 135.856 35.1329C134.842 35.5886 133.714 35.8165 132.472 35.8165C131.219 35.8165 130.085 35.5886 129.071 35.1329C128.057 34.6658 127.186 34.0163 126.456 33.1846C125.727 32.3529 125.169 31.3731 124.782 30.2452C124.394 29.1059 124.201 27.864 124.201 26.5196ZM126.234 25.9556V26.5196C126.234 27.5336 126.371 28.4963 126.644 29.4078C126.918 30.3078 127.317 31.1111 127.841 31.8174C128.365 32.5124 129.014 33.0593 129.789 33.4581C130.564 33.8568 131.458 34.0562 132.472 34.0562C133.475 34.0562 134.358 33.8568 135.121 33.4581C135.896 33.0593 136.545 32.5124 137.069 31.8174C137.593 31.1111 137.986 30.3078 138.248 29.4078C138.522 28.4963 138.659 27.5336 138.659 26.5196V25.9556C138.659 24.953 138.522 24.0017 138.248 23.1016C137.986 22.2016 137.588 21.3983 137.052 20.692C136.528 19.9856 135.879 19.4273 135.104 19.0172C134.329 18.607 133.441 18.4019 132.438 18.4019C131.435 18.4019 130.547 18.607 129.772 19.0172C129.009 19.4273 128.359 19.9856 127.824 20.692C127.3 21.3983 126.901 22.2016 126.627 23.1016C126.365 24.0017 126.234 24.953 126.234 25.9556ZM144.913 9.22467H146.964V31.8858L146.828 35.4747H144.913V9.22467ZM159.833 26.0582V26.4171C159.833 27.7956 159.673 29.0603 159.354 30.211C159.035 31.3617 158.574 32.3586 157.97 33.2017C157.366 34.0334 156.626 34.6771 155.748 35.1329C154.883 35.5886 153.886 35.8165 152.758 35.8165C151.653 35.8165 150.673 35.6456 149.818 35.3038C148.964 34.9506 148.235 34.455 147.631 33.817C147.027 33.1675 146.543 32.4099 146.178 31.544C145.814 30.6667 145.557 29.704 145.409 28.6558V24.0928C145.58 22.9763 145.853 21.9623 146.229 21.0508C146.605 20.1394 147.09 19.3533 147.682 18.6924C148.286 18.0316 149.004 17.5246 149.835 17.1714C150.678 16.8183 151.641 16.6417 152.724 16.6417C153.851 16.6417 154.854 16.8638 155.731 17.3082C156.62 17.7411 157.366 18.3734 157.97 19.2051C158.574 20.0255 159.035 21.0167 159.354 22.1788C159.673 23.3295 159.833 24.6226 159.833 26.0582ZM157.765 26.4171V26.0582C157.765 24.9758 157.663 23.9732 157.457 23.0504C157.252 22.1275 156.928 21.3243 156.483 20.6407C156.05 19.9457 155.492 19.4045 154.809 19.0172C154.125 18.6298 153.305 18.4361 152.348 18.4361C151.368 18.4361 150.53 18.6013 149.835 18.9317C149.152 19.2507 148.582 19.678 148.126 20.2134C147.682 20.7375 147.329 21.3129 147.067 21.9395C146.805 22.5661 146.611 23.1814 146.486 23.7852V29.1002C146.679 29.9547 147.016 30.7579 147.494 31.5098C147.973 32.2618 148.616 32.8713 149.425 33.3384C150.234 33.7942 151.22 34.022 152.382 34.022C153.316 34.022 154.119 33.8283 154.791 33.441C155.475 33.0536 156.033 32.5181 156.466 31.8345C156.911 31.1509 157.235 30.3477 157.44 29.4249C157.657 28.502 157.765 27.4994 157.765 26.4171ZM166.635 16.9835V35.4747H164.601V16.9835H166.635ZM164.242 11.6343C164.242 11.247 164.362 10.9223 164.601 10.6602C164.852 10.3868 165.193 10.2501 165.626 10.2501C166.059 10.2501 166.401 10.3868 166.652 10.6602C166.914 10.9223 167.045 11.247 167.045 11.6343C167.045 12.0103 166.914 12.335 166.652 12.6085C166.401 12.8705 166.059 13.0015 165.626 13.0015C165.193 13.0015 164.852 12.8705 164.601 12.6085C164.362 12.335 164.242 12.0103 164.242 11.6343ZM174.257 20.9312V35.4747H172.223V16.9835H174.171L174.257 20.9312ZM173.795 25.084L172.89 24.5714C172.958 23.4776 173.18 22.4522 173.556 21.4952C173.932 20.5381 174.439 19.695 175.077 18.9659C175.726 18.2367 176.484 17.6671 177.35 17.2569C178.227 16.8467 179.196 16.6417 180.255 16.6417C181.178 16.6417 182.004 16.767 182.733 17.0176C183.462 17.2683 184.083 17.6671 184.596 18.2139C185.109 18.7608 185.496 19.4615 185.758 20.316C186.032 21.1705 186.168 22.213 186.168 23.4434V35.4747H184.118V23.4263C184.118 22.1503 183.941 21.1534 183.588 20.4356C183.235 19.7064 182.733 19.188 182.084 18.8804C181.434 18.5728 180.665 18.419 179.777 18.419C178.797 18.419 177.937 18.6355 177.196 19.0684C176.467 19.49 175.852 20.0425 175.351 20.7261C174.861 21.3983 174.485 22.1218 174.223 22.8965C173.961 23.6599 173.818 24.3891 173.795 25.084ZM193.5 20.9312V35.4747H191.466V16.9835H193.414L193.5 20.9312ZM193.038 25.084L192.133 24.5714C192.201 23.4776 192.423 22.4522 192.799 21.4952C193.175 20.5381 193.682 19.695 194.32 18.9659C194.97 18.2367 195.727 17.6671 196.593 17.2569C197.47 16.8467 198.439 16.6417 199.498 16.6417C200.421 16.6417 201.247 16.767 201.976 17.0176C202.706 17.2683 203.327 17.6671 203.839 18.2139C204.352 18.7608 204.739 19.4615 205.001 20.316C205.275 21.1705 205.412 22.213 205.412 23.4434V35.4747H203.361V23.4263C203.361 22.1503 203.184 21.1534 202.831 20.4356C202.478 19.7064 201.976 19.188 201.327 18.8804C200.678 18.5728 199.909 18.419 199.02 18.419C198.04 18.419 197.18 18.6355 196.439 19.0684C195.71 19.49 195.095 20.0425 194.594 20.7261C194.104 21.3983 193.728 22.1218 193.466 22.8965C193.204 23.6599 193.061 24.3891 193.038 25.084Z" fill="#F89500"/>
</svg>
