<svg width="22" height="28" viewBox="0 0 22 28" fill="none" xmlns="http://www.w3.org/2000/svg">
<path d="M14.9621 4.48701C14.0024 5.66258 12.4669 6.58978 10.9313 6.45733C10.7394 4.86783 11.4912 3.17899 12.3709 2.13588C13.3306 0.927206 15.0101 0.066229 16.3697 0C16.5296 1.65572 15.9058 3.27833 14.9621 4.48701ZM16.3537 6.77191C14.1304 6.63946 12.2269 8.07994 11.1713 8.07994C10.0996 8.07994 8.48406 6.83814 6.72459 6.87126C4.43728 6.90437 2.30992 8.24551 1.14227 10.3814C-1.25701 14.6532 0.518459 20.978 2.83776 24.4551C3.97342 26.177 5.33301 28.0645 7.12447 27.9983C8.81996 27.9321 9.49176 26.8559 11.5391 26.8559C13.6025 26.8559 14.1943 27.9983 15.9858 27.9652C17.8412 27.9321 19.0089 26.2432 20.1446 24.5213C21.4402 22.5675 21.968 20.6634 22 20.5641C21.968 20.531 18.4171 19.1236 18.3851 14.885C18.3531 11.3417 21.1842 9.65287 21.3122 9.55353C19.7127 7.10306 17.2174 6.83814 16.3537 6.77191Z" fill="white"/>
</svg>
