<svg width="30" height="30" viewBox="0 0 30 30" fill="none" xmlns="http://www.w3.org/2000/svg">
<path d="M28.1263 15.2915C28.1263 14.2123 28.037 13.4248 27.8436 12.6082H15.2692V17.479H22.6501C22.5013 18.6894 21.6978 20.5123 19.912 21.7373L19.887 21.9003L23.8628 24.9187L24.1382 24.9457C26.6679 22.6561 28.1263 19.2873 28.1263 15.2915Z" fill="#4285F4"/>
<path d="M15.2684 28.1249C18.8844 28.1249 21.9201 26.9582 24.1374 24.9458L19.9112 21.7373C18.7803 22.5102 17.2624 23.0498 15.2684 23.0498C11.7268 23.0498 8.72085 20.7603 7.64932 17.5957L7.49226 17.6087L3.35819 20.7442L3.30412 20.8915C5.50647 25.179 10.0303 28.1249 15.2684 28.1249Z" fill="#34A853"/>
<path d="M7.65007 17.5959C7.36734 16.7792 7.20371 15.9042 7.20371 15.0001C7.20371 14.0958 7.36734 13.2209 7.6352 12.4042L7.62771 12.2303L3.44182 9.04449L3.30486 9.10834C2.39717 10.8875 1.87633 12.8855 1.87633 15.0001C1.87633 17.1146 2.39717 19.1125 3.30486 20.8917L7.65007 17.5959Z" fill="#FBBC05"/>
<path d="M15.2685 6.94997C17.7833 6.94997 19.4797 8.01454 20.447 8.90419L24.2268 5.2875C21.9054 3.17292 18.8845 1.875 15.2685 1.875C10.0303 1.875 5.50648 4.82081 3.30412 9.10828L7.63447 12.4042C8.72088 9.23958 11.7268 6.94997 15.2685 6.94997Z" fill="#EB4335"/>
</svg>
