<svg width="375" height="182" viewBox="0 0 375 182" fill="none" xmlns="http://www.w3.org/2000/svg">
<g clip-path="url(#clip0_1_123)">
<path d="M6.83656 159.838C6.83797 157.999 7.56868 156.235 8.86811 154.935C10.1675 153.635 11.9293 152.905 13.7663 152.905C15.6033 152.905 17.3651 153.635 18.6645 154.935C19.9639 156.235 20.6946 157.999 20.696 159.838" fill="#F2F2F2"/>
<path d="M13.7663 159.838C13.7166 159.838 13.669 159.818 13.6339 159.783C13.5988 159.748 13.579 159.7 13.579 159.65V155.994C13.579 155.944 13.5987 155.896 13.6339 155.861C13.669 155.826 13.7166 155.806 13.7663 155.806C13.816 155.806 13.8636 155.826 13.8987 155.861C13.9339 155.896 13.9536 155.944 13.9536 155.994V159.65C13.9536 159.7 13.9338 159.748 13.8987 159.783C13.8636 159.818 13.816 159.838 13.7663 159.838Z" fill="#CCCCCC"/>
<path d="M13.7662 158.581C13.7215 158.581 13.6782 158.565 13.6443 158.536L11.3968 156.605C11.3779 156.589 11.3624 156.569 11.351 156.547C11.3397 156.525 11.3329 156.501 11.3309 156.477C11.3289 156.452 11.3318 156.427 11.3394 156.403C11.3471 156.38 11.3593 156.358 11.3754 156.339C11.3916 156.321 11.4112 156.305 11.4333 156.294C11.4554 156.283 11.4795 156.276 11.5042 156.274C11.5288 156.273 11.5536 156.276 11.5771 156.284C11.6005 156.292 11.6222 156.304 11.6408 156.32L13.8883 158.251C13.9173 158.276 13.938 158.31 13.9476 158.347C13.9572 158.384 13.9552 158.423 13.9419 158.459C13.9286 158.495 13.9047 158.526 13.8732 158.548C13.8418 158.57 13.8045 158.581 13.7662 158.581L13.7662 158.581Z" fill="#CCCCCC"/>
<path d="M28.1877 159.838C28.1891 157.999 28.9198 156.235 30.2192 154.935C31.5186 153.635 33.2804 152.905 35.1174 152.905C36.9543 152.905 38.7162 153.635 40.0156 154.935C41.315 156.235 42.0457 157.999 42.0471 159.838" fill="#F2F2F2"/>
<path d="M35.1174 159.838C35.0677 159.838 35.0201 159.818 34.985 159.783C34.9498 159.748 34.9301 159.7 34.9301 159.65V155.994C34.9301 155.944 34.9498 155.896 34.985 155.861C35.0201 155.826 35.0677 155.806 35.1174 155.806C35.1671 155.806 35.2147 155.826 35.2498 155.861C35.2849 155.896 35.3047 155.944 35.3047 155.994V159.65C35.3047 159.7 35.2849 159.748 35.2498 159.783C35.2147 159.818 35.1671 159.838 35.1174 159.838Z" fill="#CCCCCC"/>
<path d="M35.1173 158.581C35.0726 158.581 35.0293 158.565 34.9954 158.536L32.7479 156.605C32.729 156.589 32.7134 156.569 32.702 156.547C32.6907 156.525 32.6838 156.501 32.6818 156.477C32.6798 156.452 32.6827 156.427 32.6904 156.403C32.698 156.38 32.7103 156.358 32.7264 156.339C32.7425 156.32 32.7622 156.305 32.7843 156.294C32.8064 156.283 32.8305 156.276 32.8552 156.274C32.8799 156.273 32.9047 156.276 32.9281 156.284C32.9516 156.292 32.9733 156.304 32.9919 156.32L35.2394 158.251C35.2684 158.276 35.2891 158.31 35.2987 158.347C35.3083 158.384 35.3063 158.423 35.293 158.459C35.2797 158.495 35.2557 158.526 35.2243 158.548C35.1929 158.57 35.1556 158.581 35.1173 158.581L35.1173 158.581Z" fill="#CCCCCC"/>
<path d="M311.826 27.204C319.183 27.204 325.148 21.2326 325.148 13.8665C325.148 6.50043 319.183 0.529022 311.826 0.529022C304.468 0.529022 298.503 6.50043 298.503 13.8665C298.503 21.2326 304.468 27.204 311.826 27.204Z" fill="#F2F2F2"/>
<path d="M38.9212 174.725C45.61 174.725 51.0323 173.458 51.0323 171.896C51.0323 170.333 45.61 169.067 38.9212 169.067C32.2324 169.067 26.81 170.333 26.81 171.896C26.81 173.458 32.2324 174.725 38.9212 174.725Z" fill="#F2F2F2"/>
<path d="M32.7387 55.7597C35.9151 45.8299 43.671 38.129 52.869 33.5488C63.7824 28.1143 76.3231 27.499 88.1727 29.6141C100.964 31.8974 112.92 37.1609 124.492 42.9049C135.843 48.539 147.011 54.4882 158.816 59.1442C182.383 68.4261 207.361 73.6061 232.672 74.4603C255.453 75.2211 279.811 72.7222 299.317 59.903C317.19 48.1572 328.563 28.7799 334.487 8.58123C335.245 5.99533 335.919 3.3872 336.509 0.756832C336.681 -0.00296922 335.514 -0.327376 335.341 0.434503C330.563 21.527 320.374 42.3737 302.965 55.8191C284.136 70.3611 259.424 73.7229 236.299 73.3382C210.711 72.8909 185.396 68 161.479 58.8834C149.371 54.2685 137.945 48.276 126.373 42.4906C115.056 36.8323 103.421 31.5356 90.9754 28.9259C79.6114 26.543 67.4445 26.3978 56.4878 30.6382C47.4658 34.1298 39.2397 40.3534 34.4256 48.8671C33.2518 50.9535 32.2952 53.1552 31.5709 55.4374C31.3326 56.1823 32.5016 56.5012 32.7387 55.7597Z" fill="#F2F2F2"/>
<path d="M205.646 148.604C205.754 148.604 205.856 148.561 205.932 148.485C206.008 148.41 206.05 148.307 206.05 148.2C206.05 148.092 206.008 147.99 205.932 147.914C205.856 147.838 205.754 147.795 205.646 147.795H201.811V146.179H205.646C205.754 146.179 205.856 146.136 205.932 146.06C206.008 145.985 206.05 145.882 206.05 145.775C206.05 145.667 206.008 145.565 205.932 145.489C205.856 145.413 205.754 145.37 205.646 145.37H172.946C172.839 145.37 172.737 145.413 172.661 145.489C172.585 145.565 172.543 145.667 172.543 145.775C172.543 145.882 172.585 145.985 172.661 146.06C172.737 146.136 172.839 146.179 172.946 146.179H176.782V147.795H172.946C172.839 147.795 172.737 147.838 172.661 147.914C172.585 147.99 172.543 148.092 172.543 148.2C172.543 148.307 172.585 148.41 172.661 148.485C172.737 148.561 172.839 148.604 172.946 148.604H176.782V150.22H172.946C172.839 150.22 172.737 150.263 172.661 150.339C172.585 150.415 172.543 150.517 172.543 150.625C172.543 150.732 172.585 150.835 172.661 150.91C172.737 150.986 172.839 151.029 172.946 151.029H176.782V152.645H173.35C173.136 152.645 172.931 152.731 172.779 152.882C172.628 153.034 172.543 153.239 172.543 153.454C172.543 153.668 172.628 153.874 172.779 154.025C172.931 154.177 173.136 154.262 173.35 154.262H176.617C176.593 154.327 176.58 154.395 176.58 154.464V160.122C176.58 160.283 176.644 160.437 176.757 160.551C176.871 160.665 177.025 160.729 177.185 160.729C177.346 160.729 177.5 160.665 177.613 160.551C177.727 160.437 177.791 160.283 177.791 160.122V154.464C177.79 154.395 177.778 154.327 177.754 154.262H200.839C200.815 154.327 200.803 154.395 200.802 154.464V160.122C200.802 160.283 200.866 160.437 200.979 160.551C201.093 160.665 201.247 160.729 201.408 160.729C201.568 160.729 201.722 160.665 201.836 160.551C201.949 160.437 202.013 160.283 202.013 160.122V154.464C202.012 154.395 202 154.327 201.976 154.262H205.243C205.457 154.262 205.662 154.177 205.814 154.025C205.965 153.874 206.05 153.668 206.05 153.454C206.05 153.239 205.965 153.034 205.814 152.882C205.662 152.731 205.457 152.645 205.243 152.645H201.811V151.029H205.646C205.754 151.029 205.856 150.986 205.932 150.91C206.008 150.835 206.05 150.732 206.05 150.625C206.05 150.517 206.008 150.415 205.932 150.339C205.856 150.263 205.754 150.22 205.646 150.22H201.811V148.604H205.646ZM177.589 146.179H201.004V147.795H177.589V146.179ZM201.004 152.645H177.589V151.029H201.004V152.645ZM201.004 150.22H177.589V148.604H201.004V150.22Z" fill="#3F3D56"/>
<path d="M82.5213 131.64C82.5213 124.502 76.7375 107.564 69.6028 107.564C62.468 107.564 56.6842 124.502 56.6842 131.64C56.6842 135.07 58.0453 138.36 60.468 140.785C62.8907 143.211 66.1765 144.574 69.6028 144.574C73.029 144.574 76.3149 143.211 78.7376 140.785C81.1603 138.36 82.5213 135.07 82.5213 131.64H82.5213Z" fill="#E6E6E6"/>
<path d="M79.2917 131.64C79.2917 124.502 73.5078 107.564 66.3731 107.564C59.2384 107.564 53.4546 124.502 53.4546 131.64C53.4546 135.07 54.8156 138.36 57.2383 140.785C59.661 143.211 62.9469 144.574 66.3731 144.574C69.7993 144.574 73.0852 143.211 75.5079 140.785C77.9306 138.36 79.2917 135.07 79.2917 131.64H79.2917Z" fill="#F2F2F2"/>
<path d="M66.7768 160.558C66.6697 160.558 66.5671 160.516 66.4914 160.44C66.4156 160.364 66.3731 160.262 66.3731 160.154V124.127C66.3731 124.019 66.4156 123.917 66.4914 123.841C66.5671 123.765 66.6697 123.722 66.7768 123.722C66.8839 123.722 66.9866 123.765 67.0623 123.841C67.138 123.917 67.1805 124.019 67.1805 124.127V160.154C67.1805 160.262 67.138 160.364 67.0623 160.44C66.9866 160.516 66.8839 160.558 66.7768 160.558Z" fill="#CCCCCC"/>
<path d="M66.7768 130.033C66.697 130.033 66.6189 130.009 66.5526 129.965C66.4862 129.92 66.4345 129.857 66.4039 129.783C66.3734 129.709 66.3654 129.628 66.381 129.55C66.3965 129.471 66.435 129.399 66.4914 129.343L71.7709 124.057C71.8466 123.981 71.9493 123.939 72.0563 123.939C72.1634 123.939 72.2661 123.981 72.3418 124.057C72.4175 124.133 72.46 124.236 72.46 124.343C72.46 124.45 72.4175 124.553 72.3418 124.629L67.0623 129.914C67.0248 129.952 66.9803 129.982 66.9314 130.002C66.8824 130.022 66.8298 130.033 66.7768 130.033Z" fill="#CCCCCC"/>
<path d="M215.34 160.558C215.233 160.558 215.13 160.516 215.055 160.44C214.979 160.364 214.936 160.262 214.936 160.154V124.127C214.936 124.019 214.979 123.917 215.055 123.841C215.13 123.765 215.233 123.722 215.34 123.722C215.447 123.722 215.55 123.765 215.626 123.841C215.701 123.917 215.744 124.019 215.744 124.127V160.154C215.744 160.262 215.701 160.364 215.626 160.44C215.55 160.516 215.447 160.558 215.34 160.558Z" fill="#3F3D56"/>
<path d="M258.537 131.64C258.537 124.502 252.753 107.564 245.618 107.564C238.483 107.564 232.699 124.502 232.699 131.64C232.699 135.07 234.061 138.36 236.483 140.785C238.906 143.211 242.192 144.574 245.618 144.574C249.044 144.574 252.33 143.211 254.753 140.785C257.176 138.36 258.537 135.07 258.537 131.64H258.537Z" fill="#E6E6E6"/>
<path d="M255.307 131.64C255.307 124.502 249.523 107.564 242.388 107.564C235.254 107.564 229.47 124.502 229.47 131.64C229.47 135.07 230.831 138.36 233.254 140.785C235.676 143.211 238.962 144.574 242.388 144.574C245.815 144.574 249.101 143.211 251.523 140.785C253.946 138.36 255.307 135.07 255.307 131.64H255.307Z" fill="#F2F2F2"/>
<path d="M242.792 160.558C242.685 160.558 242.582 160.516 242.507 160.44C242.431 160.364 242.388 160.262 242.388 160.154V124.127C242.388 124.019 242.431 123.917 242.507 123.841C242.582 123.765 242.685 123.722 242.792 123.722C242.899 123.722 243.002 123.765 243.078 123.841C243.153 123.917 243.196 124.019 243.196 124.127V160.154C243.196 160.262 243.153 160.364 243.078 160.44C243.002 160.516 242.899 160.558 242.792 160.558Z" fill="#CCCCCC"/>
<path d="M242.792 130.033C242.712 130.033 242.634 130.009 242.568 129.965C242.501 129.92 242.45 129.857 242.419 129.783C242.389 129.709 242.381 129.628 242.396 129.55C242.412 129.471 242.45 129.399 242.507 129.343L247.786 124.057C247.862 123.981 247.965 123.939 248.072 123.939C248.179 123.939 248.281 123.981 248.357 124.057C248.433 124.133 248.475 124.236 248.475 124.343C248.475 124.45 248.433 124.553 248.357 124.629L243.078 129.914C243.04 129.952 242.996 129.982 242.947 130.002C242.898 130.022 242.845 130.033 242.792 130.033Z" fill="#CCCCCC"/>
<path d="M109.57 20.9394H103.11C102.629 20.9389 102.167 20.7471 101.826 20.4062C101.486 20.0652 101.294 19.6029 101.294 19.1207V4.16651C101.294 3.68432 101.486 3.22202 101.826 2.88106C102.167 2.54009 102.629 2.3483 103.11 2.34776H109.57C110.051 2.3483 110.513 2.54009 110.854 2.88106C111.194 3.22202 111.386 3.68432 111.386 4.16651V19.1207C111.386 19.6029 111.194 20.0652 110.854 20.4062C110.513 20.7471 110.051 20.9389 109.57 20.9394Z" fill="#E6E6E6"/>
<path d="M135.003 160.377H101.899C100.989 160.376 100.117 160.014 99.4738 159.37C98.8305 158.726 98.4687 157.852 98.4676 156.942V23.1624C98.4687 22.2515 98.8305 21.3783 99.4738 20.7343C100.117 20.0902 100.989 19.728 101.899 19.7269H135.003C135.913 19.728 136.785 20.0902 137.428 20.7343C138.072 21.3783 138.433 22.2515 138.434 23.1624V156.942C138.433 157.852 138.072 158.726 137.428 159.37C136.785 160.014 135.913 160.376 135.003 160.377Z" fill="#E6E6E6"/>
<path d="M115.221 160.377H82.1176C81.2078 160.376 80.3356 160.014 79.6923 159.37C79.049 158.726 78.6871 157.852 78.6861 156.942V23.1624C78.6871 22.2515 79.049 21.3783 79.6923 20.7343C80.3356 20.0902 81.2078 19.728 82.1176 19.7269H115.221C116.131 19.728 117.003 20.0902 117.647 20.7343C118.29 21.3783 118.652 22.2515 118.653 23.1624V156.942C118.652 157.852 118.29 158.726 117.647 159.37C117.003 160.014 116.131 160.376 115.221 160.377Z" fill="#F2F2F2"/>
<path d="M103.514 20.9394H97.0547C96.573 20.9389 96.1113 20.7471 95.7707 20.4062C95.4301 20.0652 95.2385 19.6029 95.238 19.1207V4.16651C95.2385 3.68432 95.4301 3.22202 95.7707 2.88106C96.1113 2.54009 96.573 2.3483 97.0547 2.34776H103.514C103.996 2.3483 104.457 2.54009 104.798 2.88106C105.139 3.22202 105.33 3.68432 105.331 4.16651V19.1207C105.33 19.6029 105.139 20.0652 104.798 20.4062C104.457 20.7471 103.996 20.9389 103.514 20.9394Z" fill="#F2F2F2"/>
<path d="M95.0362 50.0395H87.3658C87.0982 50.0392 86.8416 49.9326 86.6524 49.7432C86.4632 49.5538 86.3568 49.2969 86.3565 49.0291V37.3082C86.3568 37.0403 86.4632 36.7835 86.6524 36.5941C86.8416 36.4046 87.0982 36.2981 87.3658 36.2978H95.0362C95.3037 36.2981 95.5603 36.4046 95.7495 36.5941C95.9387 36.7835 96.0451 37.0403 96.0454 37.3082V49.0291C96.0451 49.2969 95.9387 49.5538 95.7495 49.7432C95.5603 49.9326 95.3037 50.0392 95.0362 50.0395Z" fill="white"/>
<path d="M109.973 50.0395H102.303C102.035 50.0392 101.779 49.9326 101.59 49.7432C101.4 49.5538 101.294 49.2969 101.294 49.0291V37.3082C101.294 37.0403 101.4 36.7835 101.59 36.5941C101.779 36.4046 102.035 36.2981 102.303 36.2978H109.973C110.241 36.2981 110.497 36.4046 110.687 36.5941C110.876 36.7835 110.982 37.0403 110.982 37.3082V49.0291C110.982 49.2969 110.876 49.5538 110.687 49.7432C110.497 49.9326 110.241 50.0392 109.973 50.0395Z" fill="white"/>
<path d="M95.0362 71.4603H87.3658C87.0982 71.46 86.8416 71.3535 86.6524 71.1641C86.4632 70.9746 86.3568 70.7178 86.3565 70.4499V58.7291C86.3568 58.4612 86.4632 58.2044 86.6524 58.0149C86.8416 57.8255 87.0982 57.719 87.3658 57.7187H95.0362C95.3037 57.719 95.5603 57.8255 95.7495 58.0149C95.9387 58.2044 96.0451 58.4612 96.0454 58.7291V70.4499C96.0451 70.7178 95.9387 70.9746 95.7495 71.1641C95.5603 71.3535 95.3037 71.46 95.0362 71.4603Z" fill="white"/>
<path d="M109.973 71.4603H102.303C102.035 71.46 101.779 71.3535 101.59 71.1641C101.4 70.9746 101.294 70.7178 101.294 70.4499V58.7291C101.294 58.4612 101.4 58.2044 101.59 58.0149C101.779 57.8255 102.035 57.719 102.303 57.7187H109.973C110.241 57.719 110.497 57.8255 110.687 58.0149C110.876 58.2044 110.982 58.4612 110.982 58.7291V70.4499C110.982 70.7178 110.876 70.9746 110.687 71.1641C110.497 71.3535 110.241 71.46 109.973 71.4603Z" fill="white"/>
<path d="M95.0362 92.8812H87.3658C87.0982 92.8809 86.8416 92.7743 86.6524 92.5849C86.4632 92.3955 86.3568 92.1386 86.3565 91.8708V80.1499C86.3568 79.882 86.4632 79.6252 86.6524 79.4358C86.8416 79.2464 87.0982 79.1398 87.3658 79.1395H95.0362C95.3037 79.1398 95.5603 79.2464 95.7495 79.4358C95.9387 79.6252 96.0451 79.882 96.0454 80.1499V91.8708C96.0451 92.1386 95.9387 92.3955 95.7495 92.5849C95.5603 92.7743 95.3037 92.8809 95.0362 92.8812Z" fill="white"/>
<path d="M109.973 92.8812H102.303C102.035 92.8809 101.779 92.7743 101.59 92.5849C101.4 92.3955 101.294 92.1386 101.294 91.8708V80.1499C101.294 79.882 101.4 79.6252 101.59 79.4358C101.779 79.2464 102.035 79.1398 102.303 79.1395H109.973C110.241 79.1398 110.497 79.2464 110.687 79.4358C110.876 79.6252 110.982 79.882 110.982 80.1499V91.8708C110.982 92.1386 110.876 92.3955 110.687 92.5849C110.497 92.7743 110.241 92.8809 109.973 92.8812Z" fill="white"/>
<path d="M95.0362 114.302H87.3658C87.0982 114.302 86.8416 114.195 86.6524 114.006C86.4632 113.816 86.3568 113.559 86.3565 113.292V101.571C86.3568 101.303 86.4632 101.046 86.6524 100.857C86.8416 100.667 87.0982 100.561 87.3658 100.56H95.0362C95.3037 100.561 95.5603 100.667 95.7495 100.857C95.9387 101.046 96.0451 101.303 96.0454 101.571V113.292C96.0451 113.559 95.9387 113.816 95.7495 114.006C95.5603 114.195 95.3037 114.302 95.0362 114.302Z" fill="white"/>
<path d="M109.973 114.302H102.303C102.035 114.302 101.779 114.195 101.59 114.006C101.4 113.816 101.294 113.559 101.294 113.292V101.571C101.294 101.303 101.4 101.046 101.59 100.857C101.779 100.667 102.035 100.561 102.303 100.56H109.973C110.241 100.561 110.497 100.667 110.687 100.857C110.876 101.046 110.982 101.303 110.982 101.571V113.292C110.982 113.559 110.876 113.816 110.687 114.006C110.497 114.195 110.241 114.302 109.973 114.302Z" fill="white"/>
<path d="M95.0362 135.723H87.3658C87.0982 135.723 86.8416 135.616 86.6524 135.427C86.4632 135.237 86.3568 134.98 86.3565 134.712V122.992C86.3568 122.724 86.4632 122.467 86.6524 122.278C86.8416 122.088 87.0982 121.982 87.3658 121.981H95.0362C95.3037 121.982 95.5603 122.088 95.7495 122.278C95.9387 122.467 96.0451 122.724 96.0454 122.992V134.712C96.0451 134.98 95.9387 135.237 95.7495 135.427C95.5603 135.616 95.3037 135.723 95.0362 135.723Z" fill="white"/>
<path d="M109.973 135.723H102.303C102.035 135.723 101.779 135.616 101.59 135.427C101.4 135.237 101.294 134.98 101.294 134.712V122.992C101.294 122.724 101.4 122.467 101.59 122.278C101.779 122.088 102.035 121.982 102.303 121.981H109.973C110.241 121.982 110.497 122.088 110.687 122.278C110.876 122.467 110.982 122.724 110.982 122.992V134.712C110.982 134.98 110.876 135.237 110.687 135.427C110.497 135.616 110.241 135.723 109.973 135.723Z" fill="white"/>
<path d="M276.3 91.6687H269.84C269.359 91.6681 268.897 91.4763 268.556 91.1354C268.216 90.7944 268.024 90.3321 268.024 89.8499V81.3624C268.024 80.8802 268.216 80.4179 268.556 80.077C268.897 79.736 269.359 79.5442 269.84 79.5437H276.3C276.781 79.5442 277.243 79.736 277.584 80.077C277.924 80.4179 278.116 80.8802 278.116 81.3624V89.8499C278.116 90.3321 277.924 90.7944 277.584 91.1354C277.243 91.4763 276.781 91.6681 276.3 91.6687Z" fill="#E6E6E6"/>
<path d="M330.8 160.781H297.696C296.786 160.78 295.914 160.418 295.271 159.774C294.627 159.13 294.265 158.257 294.264 157.346V93.0833C294.265 92.1724 294.627 91.2992 295.271 90.6552C295.914 90.0111 296.786 89.6489 297.696 89.6478H330.8C331.71 89.6489 332.582 90.0111 333.225 90.6552C333.868 91.2992 334.23 92.1724 334.231 93.0833V157.346C334.23 158.257 333.868 159.13 333.225 159.774C332.582 160.418 331.71 160.78 330.8 160.781Z" fill="#E6E6E6"/>
<path d="M311.018 160.781H253.692C252.782 160.78 251.91 160.418 251.267 159.774C250.624 159.13 250.262 158.257 250.261 157.346V93.0833C250.262 92.1724 250.624 91.2992 251.267 90.6552C251.91 90.0111 252.782 89.6489 253.692 89.6478H311.018C311.928 89.6489 312.8 90.0111 313.443 90.6552C314.087 91.2992 314.449 92.1724 314.45 93.0833V157.346C314.449 158.257 314.087 159.13 313.443 159.774C312.8 160.418 311.928 160.78 311.018 160.781Z" fill="#F2F2F2"/>
<path d="M270.244 91.6687H263.785C263.303 91.6681 262.841 91.4763 262.501 91.1354C262.16 90.7944 261.969 90.3321 261.968 89.8499V81.3624C261.969 80.8802 262.16 80.4179 262.501 80.077C262.841 79.736 263.303 79.5442 263.785 79.5437H270.244C270.726 79.5442 271.187 79.736 271.528 80.077C271.869 80.4179 272.06 80.8802 272.061 81.3624V89.8499C272.06 90.3321 271.869 90.7944 271.528 91.1354C271.187 91.4763 270.726 91.6681 270.244 91.6687Z" fill="#F2F2F2"/>
<path d="M278.722 121.375H271.051C270.784 121.375 270.527 121.268 270.338 121.079C270.149 120.889 270.043 120.632 270.042 120.365V108.644C270.043 108.376 270.149 108.119 270.338 107.93C270.527 107.74 270.784 107.634 271.051 107.633H278.722C278.989 107.634 279.246 107.74 279.435 107.93C279.624 108.119 279.731 108.376 279.731 108.644V120.365C279.731 120.632 279.624 120.889 279.435 121.079C279.246 121.268 278.989 121.375 278.722 121.375Z" fill="white"/>
<path d="M293.659 121.375H285.989C285.721 121.375 285.464 121.268 285.275 121.079C285.086 120.889 284.98 120.632 284.979 120.365V108.644C284.98 108.376 285.086 108.119 285.275 107.93C285.464 107.74 285.721 107.634 285.989 107.633H293.659C293.926 107.634 294.183 107.74 294.372 107.93C294.561 108.119 294.668 108.376 294.668 108.644V120.365C294.668 120.632 294.561 120.889 294.372 121.079C294.183 121.268 293.926 121.375 293.659 121.375Z" fill="white"/>
<path d="M278.722 142.796H271.051C270.784 142.795 270.527 142.689 270.338 142.499C270.149 142.31 270.043 142.053 270.042 141.785V130.065C270.043 129.797 270.149 129.54 270.338 129.35C270.527 129.161 270.784 129.054 271.051 129.054H278.722C278.989 129.054 279.246 129.161 279.435 129.35C279.624 129.54 279.731 129.797 279.731 130.065V141.785C279.731 142.053 279.624 142.31 279.435 142.499C279.246 142.689 278.989 142.795 278.722 142.796Z" fill="white"/>
<path d="M293.659 142.796H285.989C285.721 142.795 285.464 142.689 285.275 142.499C285.086 142.31 284.98 142.053 284.979 141.785V130.065C284.98 129.797 285.086 129.54 285.275 129.35C285.464 129.161 285.721 129.054 285.989 129.054H293.659C293.926 129.054 294.183 129.161 294.372 129.35C294.561 129.54 294.668 129.797 294.668 130.065V141.785C294.668 142.053 294.561 142.31 294.372 142.499C294.183 142.689 293.926 142.795 293.659 142.796Z" fill="white"/>
<path d="M417.596 160.983H-4.5963C-4.70336 160.983 -4.80605 160.941 -4.88176 160.865C-4.95747 160.789 -5 160.686 -5 160.579C-5 160.472 -4.95747 160.369 -4.88176 160.293C-4.80605 160.218 -4.70336 160.175 -4.5963 160.175H417.596C417.703 160.175 417.806 160.218 417.882 160.293C417.957 160.369 418 160.472 418 160.579C418 160.686 417.957 160.789 417.882 160.865C417.806 160.941 417.703 160.983 417.596 160.983Z" fill="#E6E6E6"/>
<path d="M141.462 175.129H103.918C103.811 175.129 103.708 175.087 103.632 175.011C103.556 174.935 103.514 174.832 103.514 174.725C103.514 174.618 103.556 174.515 103.632 174.439C103.708 174.363 103.811 174.321 103.918 174.321H141.462C141.569 174.321 141.672 174.363 141.748 174.439C141.823 174.515 141.866 174.618 141.866 174.725C141.866 174.832 141.823 174.935 141.748 175.011C141.672 175.087 141.569 175.129 141.462 175.129Z" fill="#E6E6E6"/>
<path d="M234.718 175.129H197.173C197.066 175.129 196.964 175.087 196.888 175.011C196.812 174.935 196.77 174.832 196.77 174.725C196.77 174.618 196.812 174.515 196.888 174.439C196.964 174.363 197.066 174.321 197.173 174.321H234.718C234.825 174.321 234.928 174.363 235.003 174.439C235.079 174.515 235.122 174.618 235.122 174.725C235.122 174.832 235.079 174.935 235.003 175.011C234.928 175.087 234.825 175.129 234.718 175.129Z" fill="#E6E6E6"/>
<path d="M327.974 175.129H290.429C290.322 175.129 290.22 175.087 290.144 175.011C290.068 174.935 290.026 174.832 290.026 174.725C290.026 174.618 290.068 174.515 290.144 174.439C290.22 174.363 290.322 174.321 290.429 174.321H327.974C328.081 174.321 328.184 174.363 328.259 174.439C328.335 174.515 328.378 174.618 328.378 174.725C328.378 174.832 328.335 174.935 328.259 175.011C328.184 175.087 328.081 175.129 327.974 175.129Z" fill="#E6E6E6"/>
<path d="M162.859 131.64C162.859 124.502 157.075 107.564 149.94 107.564C142.805 107.564 137.021 124.502 137.021 131.64C137.021 135.07 138.383 138.36 140.805 140.785C143.228 143.211 146.514 144.574 149.94 144.574C153.366 144.574 156.652 143.211 159.075 140.785C161.498 138.36 162.859 135.07 162.859 131.64H162.859Z" fill="#E6E6E6"/>
<path d="M159.629 131.64C159.629 124.502 153.845 107.564 146.71 107.564C139.576 107.564 133.792 124.502 133.792 131.64C133.792 135.07 135.153 138.36 137.576 140.785C139.998 143.211 143.284 144.574 146.71 144.574C150.137 144.574 153.422 143.211 155.845 140.785C158.268 138.36 159.629 135.07 159.629 131.64H159.629Z" fill="#F2F2F2"/>
<path d="M147.114 160.558C147.007 160.558 146.904 160.516 146.829 160.44C146.753 160.364 146.71 160.262 146.71 160.154V124.127C146.71 124.019 146.753 123.917 146.829 123.841C146.904 123.765 147.007 123.722 147.114 123.722C147.221 123.722 147.324 123.765 147.4 123.841C147.475 123.917 147.518 124.019 147.518 124.127V160.154C147.518 160.262 147.475 160.364 147.4 160.44C147.324 160.516 147.221 160.558 147.114 160.558Z" fill="#CCCCCC"/>
<path d="M147.114 130.033C147.034 130.033 146.956 130.009 146.89 129.965C146.823 129.92 146.772 129.857 146.741 129.783C146.711 129.709 146.703 129.628 146.718 129.55C146.734 129.471 146.772 129.399 146.829 129.343L152.108 124.057C152.184 123.981 152.287 123.939 152.394 123.939C152.501 123.939 152.603 123.981 152.679 124.057C152.755 124.133 152.797 124.236 152.797 124.343C152.797 124.45 152.755 124.553 152.679 124.629L147.4 129.914C147.362 129.952 147.318 129.982 147.269 130.002C147.22 130.022 147.167 130.033 147.114 130.033Z" fill="#CCCCCC"/>
<path d="M369.152 131.64C369.152 124.502 363.368 107.564 356.233 107.564C349.098 107.564 343.315 124.502 343.315 131.64C343.315 135.07 344.676 138.36 347.098 140.785C349.521 143.211 352.807 144.574 356.233 144.574C359.659 144.574 362.945 143.211 365.368 140.785C367.791 138.36 369.152 135.07 369.152 131.64H369.152Z" fill="#E6E6E6"/>
<path d="M365.922 131.64C365.922 124.502 360.138 107.564 353.004 107.564C345.869 107.564 340.085 124.502 340.085 131.64C340.085 135.07 341.446 138.36 343.869 140.785C346.291 143.211 349.577 144.574 353.004 144.574C356.43 144.574 359.716 143.211 362.138 140.785C364.561 138.36 365.922 135.07 365.922 131.64H365.922Z" fill="#F2F2F2"/>
<path d="M353.407 160.558C353.3 160.558 353.197 160.516 353.122 160.44C353.046 160.364 353.004 160.262 353.004 160.154V124.127C353.004 124.019 353.046 123.917 353.122 123.841C353.197 123.765 353.3 123.722 353.407 123.722C353.514 123.722 353.617 123.765 353.693 123.841C353.768 123.917 353.811 124.019 353.811 124.127V160.154C353.811 160.262 353.768 160.364 353.693 160.44C353.617 160.516 353.514 160.558 353.407 160.558Z" fill="#CCCCCC"/>
<path d="M353.407 130.033C353.327 130.033 353.249 130.009 353.183 129.965C353.117 129.92 353.065 129.857 353.034 129.783C353.004 129.709 352.996 129.628 353.011 129.55C353.027 129.471 353.065 129.399 353.122 129.343L358.401 124.057C358.477 123.981 358.58 123.939 358.687 123.939C358.794 123.939 358.897 123.981 358.972 124.057C359.048 124.133 359.09 124.236 359.09 124.343C359.09 124.45 359.048 124.553 358.972 124.629L353.693 129.914C353.655 129.952 353.611 129.982 353.562 130.002C353.513 130.022 353.46 130.033 353.407 130.033Z" fill="#CCCCCC"/>
<path d="M219.781 136.127H210.899C210.632 136.127 210.375 136.02 210.186 135.831C209.997 135.641 209.89 135.385 209.89 135.117V126.225C209.89 125.957 209.997 125.7 210.186 125.511C210.375 125.321 210.632 125.215 210.899 125.215H219.781C220.048 125.215 220.305 125.321 220.494 125.511C220.683 125.7 220.79 125.957 220.79 126.225V135.117C220.79 135.385 220.683 135.641 220.494 135.831C220.305 136.02 220.048 136.127 219.781 136.127Z" fill="#3F3D56"/>
<path d="M305.998 140.457C306.095 140.483 306.186 140.529 306.263 140.593C306.34 140.657 306.402 140.738 306.445 140.829C306.488 140.92 306.51 141.019 306.51 141.119C306.511 141.22 306.489 141.319 306.447 141.41L308.202 143.105L306.966 143.382L305.488 141.73C305.34 141.649 305.227 141.517 305.17 141.358C305.112 141.198 305.116 141.024 305.178 140.867C305.241 140.71 305.36 140.581 305.511 140.506C305.662 140.43 305.835 140.413 305.998 140.457H305.998Z" fill="#FFB8B8"/>
<path d="M308.467 144.915L306.301 142.881C306.272 142.853 306.248 142.82 306.231 142.782C306.214 142.745 306.205 142.704 306.204 142.663C306.204 142.622 306.211 142.581 306.226 142.543C306.242 142.505 306.264 142.47 306.293 142.441L306.735 141.993C306.788 141.94 306.858 141.908 306.932 141.902C307.007 141.897 307.081 141.919 307.14 141.965L308.955 143.353L310.087 140.604C310.132 140.496 310.198 140.398 310.282 140.316C310.366 140.234 310.466 140.17 310.576 140.129C310.685 140.087 310.802 140.069 310.919 140.074C311.036 140.08 311.151 140.109 311.256 140.161C311.422 140.241 311.557 140.373 311.642 140.537C311.727 140.701 311.756 140.888 311.725 141.07C311.52 142.32 310.275 143.973 309.551 144.847C309.453 144.966 309.319 145.052 309.17 145.092C309.021 145.132 308.862 145.125 308.717 145.071C308.624 145.037 308.539 144.984 308.467 144.915Z" fill="#F9A826"/>
<path d="M307.252 142.942L305.658 140.627C305.637 140.597 305.629 140.561 305.636 140.525C305.642 140.489 305.663 140.458 305.692 140.437L305.756 140.393C305.771 140.383 305.788 140.376 305.805 140.372C305.823 140.368 305.841 140.368 305.859 140.371C305.876 140.374 305.893 140.381 305.908 140.391C305.923 140.401 305.936 140.413 305.946 140.428L307.541 142.743C307.551 142.758 307.558 142.774 307.562 142.792C307.565 142.81 307.566 142.828 307.562 142.845C307.559 142.863 307.553 142.88 307.543 142.895C307.533 142.91 307.52 142.923 307.506 142.933L307.442 142.977C307.412 142.998 307.375 143.006 307.339 142.999C307.304 142.993 307.272 142.972 307.252 142.942Z" fill="white"/>
<path d="M306.806 142.959L305.483 141.038C305.427 140.956 305.405 140.855 305.423 140.757C305.441 140.659 305.497 140.572 305.579 140.516L305.714 140.423L307.463 142.962L307.328 143.056C307.246 143.112 307.145 143.134 307.047 143.116C306.949 143.098 306.863 143.041 306.806 142.959Z" fill="#3F3D56"/>
<path d="M306.966 159.543L306.135 159.447L306.245 156.207L307.336 156.333L306.966 159.543Z" fill="#FFB8B8"/>
<path d="M307.085 160.374L304.405 160.064L304.409 160.03C304.425 159.893 304.468 159.76 304.535 159.64C304.602 159.519 304.692 159.413 304.8 159.327C304.908 159.241 305.032 159.178 305.164 159.14C305.297 159.102 305.436 159.091 305.573 159.106H305.573L307.209 159.295L307.085 160.374Z" fill="#2F2E41"/>
<path d="M316.63 158.927L315.831 159.175L314.498 156.206L315.678 155.841L316.63 158.927Z" fill="#FFB8B8"/>
<path d="M317.074 159.64L314.496 160.437L314.486 160.405C314.446 160.273 314.431 160.134 314.444 159.997C314.457 159.859 314.497 159.726 314.561 159.604C314.625 159.481 314.713 159.373 314.819 159.285C314.925 159.197 315.048 159.131 315.18 159.09H315.18L316.754 158.603L317.074 159.64Z" fill="#2F2E41"/>
<path d="M306.038 158.796C305.954 158.77 305.883 158.712 305.84 158.634C305.798 158.557 305.787 158.466 305.811 158.38L306.312 152.607C306.335 152.343 306.418 152.089 306.554 151.862L309.586 146.824L312.3 147.312L312.317 147.319C313.636 148.128 314.807 152.049 315.94 155.841C316.116 156.431 316.298 157.041 316.476 157.623C316.509 157.707 316.508 157.8 316.473 157.882C316.439 157.965 316.374 158.031 316.291 158.066L315.47 158.412C315.392 158.445 315.305 158.448 315.225 158.42C315.145 158.392 315.078 158.335 315.038 158.261L310.814 150.519C310.809 150.509 310.801 150.501 310.792 150.495C310.783 150.488 310.772 150.485 310.761 150.483C310.75 150.482 310.739 150.483 310.729 150.487C310.719 150.491 310.71 150.498 310.703 150.506L308.251 153.283L307.35 158.576L307.347 158.588C307.314 158.663 307.255 158.725 307.181 158.76C307.107 158.796 307.023 158.804 306.943 158.782L306.06 158.799L306.054 158.799L306.038 158.796Z" fill="#2F2E41"/>
<path d="M309.439 147.376L309.422 147.37L309.417 147.353C309.404 147.311 308.164 143.109 309.282 140.43L309.283 140.427C309.316 140.363 310.095 138.864 311.001 138.714L311.025 138.71L311.32 139.261C311.412 139.354 313.006 141.011 312.283 143.858C312.348 144.092 313.228 147.298 312.749 147.777C312.575 147.898 312.363 147.951 312.152 147.927C311.23 147.848 310.319 147.663 309.439 147.376Z" fill="#F9A826"/>
<path d="M310.814 138.188C311.983 138.188 312.93 137.24 312.93 136.07C312.93 134.901 311.983 133.953 310.814 133.953C309.646 133.953 308.699 134.901 308.699 136.07C308.699 137.24 309.646 138.188 310.814 138.188Z" fill="#2F2E41"/>
<path d="M309.974 138.178C310.9 138.178 311.65 137.427 311.65 136.5C311.65 135.574 310.9 134.822 309.974 134.822C309.048 134.822 308.298 135.574 308.298 136.5C308.298 137.427 309.048 138.178 309.974 138.178Z" fill="#FFB8B8"/>
<path d="M311.053 138.13C310.9 138.185 310.712 138.232 310.592 138.12C310.542 138.055 310.512 137.976 310.508 137.894C310.503 137.813 310.523 137.731 310.565 137.661C310.652 137.523 310.722 137.374 310.774 137.22C310.79 137.103 310.776 136.985 310.732 136.876C310.688 136.767 310.617 136.671 310.526 136.598C310.344 136.459 310.138 136.356 309.919 136.292L308.745 135.875C308.44 135.803 308.17 135.627 307.979 135.378C307.881 135.17 307.865 134.933 307.932 134.714C308 134.495 308.147 134.308 308.345 134.192C308.544 134.092 308.763 134.037 308.987 134.033C309.21 134.028 309.431 134.074 309.634 134.167C309.858 134.271 310.087 134.363 310.321 134.442C310.791 134.566 311.325 134.455 311.738 134.72C311.912 134.852 312.05 135.026 312.14 135.226C312.23 135.425 312.268 135.644 312.252 135.863C312.217 136.302 312.099 136.73 311.907 137.126C311.817 137.37 311.688 137.598 311.524 137.799C311.444 137.898 311.341 137.975 311.224 138.026C311.108 138.076 310.981 138.097 310.854 138.088L311.053 138.13Z" fill="#2F2E41"/>
<path d="M312.589 136.412C313.343 136.412 313.954 135.8 313.954 135.046C313.954 134.291 313.343 133.679 312.589 133.679C311.835 133.679 311.224 134.291 311.224 135.046C311.224 135.8 311.835 136.412 312.589 136.412Z" fill="#2F2E41"/>
<path d="M310.337 137.027C310.337 137.002 310.343 136.978 310.356 136.956C310.369 136.935 310.387 136.918 310.409 136.906C310.431 136.894 310.456 136.889 310.48 136.89C310.505 136.892 310.529 136.9 310.55 136.913C310.57 136.927 310.586 136.946 310.597 136.969C310.607 136.991 310.612 137.016 310.609 137.041C310.606 137.066 310.597 137.089 310.582 137.109C310.567 137.129 310.547 137.144 310.524 137.153V137.454C310.525 137.461 310.523 137.467 310.521 137.474C310.518 137.48 310.514 137.486 310.51 137.49C310.505 137.495 310.499 137.499 310.493 137.502C310.487 137.504 310.48 137.506 310.473 137.506C310.467 137.506 310.46 137.504 310.454 137.502C310.447 137.499 310.442 137.495 310.437 137.49C310.432 137.486 310.428 137.48 310.426 137.474C310.423 137.467 310.422 137.461 310.422 137.454V137.153C310.397 137.143 310.375 137.126 310.36 137.103C310.345 137.081 310.337 137.054 310.337 137.027Z" fill="white"/>
<path d="M306.081 141.891C306.181 141.881 306.282 141.893 306.377 141.927C306.471 141.96 306.558 142.014 306.629 142.084C306.701 142.154 306.756 142.239 306.792 142.333C306.827 142.427 306.841 142.528 306.834 142.628L309.069 143.604L308.007 144.296L306.047 143.263C305.88 143.239 305.727 143.154 305.618 143.025C305.509 142.895 305.451 142.731 305.456 142.562C305.46 142.393 305.526 142.231 305.641 142.107C305.757 141.984 305.913 141.907 306.081 141.891Z" fill="#FFB8B8"/>
<path d="M309.947 145.209L307.209 144.058C307.172 144.042 307.137 144.019 307.109 143.989C307.08 143.96 307.058 143.925 307.043 143.887C307.028 143.849 307.02 143.808 307.021 143.767C307.022 143.726 307.032 143.686 307.048 143.648L307.307 143.074C307.337 143.006 307.392 142.951 307.46 142.92C307.528 142.889 307.605 142.884 307.676 142.906L309.861 143.574L309.965 140.602C309.969 140.485 309.997 140.37 310.047 140.264C310.098 140.158 310.169 140.064 310.257 139.986C310.346 139.909 310.449 139.851 310.56 139.815C310.672 139.78 310.79 139.767 310.906 139.779C311.09 139.796 311.263 139.873 311.399 139.997C311.535 140.121 311.628 140.286 311.662 140.467C311.905 141.711 311.314 143.695 310.94 144.766C310.889 144.913 310.794 145.039 310.668 145.129C310.542 145.219 310.391 145.267 310.236 145.268C310.137 145.267 310.039 145.247 309.947 145.209Z" fill="#F9A826"/>
<path d="M29.2312 144.505H25.0384V143.231C26.3633 142.308 27.5372 142.388 29.0815 143.306L29.2312 144.505Z" fill="#F9A826"/>
<path d="M24.0676 167.14H23.1495L23.0123 163.595H24.0676V167.14Z" fill="#FFB8B8"/>
<path d="M24.3015 168.03L21.3418 168.03V167.993C21.3418 167.841 21.3716 167.691 21.4295 167.551C21.4873 167.412 21.5722 167.284 21.6792 167.177C21.7862 167.07 21.9132 166.985 22.0529 166.927C22.1927 166.869 22.3425 166.839 22.4938 166.839H22.4939L24.3016 166.84L24.3015 168.03Z" fill="#2F2E41"/>
<path d="M29.2378 167.14H30.1554L30.2927 163.595H29.2374L29.2378 167.14Z" fill="#FFB8B8"/>
<path d="M29.0035 166.84L30.8112 166.839H30.8113C30.9626 166.839 31.1124 166.869 31.2522 166.927C31.392 166.985 31.519 167.07 31.6259 167.177C31.7329 167.284 31.8178 167.412 31.8757 167.551C31.9335 167.691 31.9633 167.841 31.9633 167.993V168.03L29.0036 168.03L29.0035 166.84Z" fill="#2F2E41"/>
<path d="M29.2618 166.685C29.1852 166.685 29.111 166.659 29.0512 166.611C28.9914 166.563 28.9497 166.496 28.9328 166.421L26.6577 156.486C26.6527 156.461 26.639 156.438 26.6189 156.422C26.5988 156.406 26.5738 156.398 26.5481 156.398H26.5475C26.5217 156.398 26.4966 156.407 26.4765 156.423C26.4565 156.439 26.4429 156.462 26.4382 156.487L24.3489 166.355C24.3326 166.431 24.291 166.499 24.2311 166.547C24.1711 166.596 24.0964 166.622 24.0193 166.623H23.024C22.9781 166.623 22.9326 166.613 22.8905 166.595C22.8483 166.577 22.8103 166.55 22.7788 166.517C22.7473 166.483 22.723 166.444 22.7073 166.401C22.6916 166.357 22.685 166.311 22.6877 166.265L23.429 153.758L23.7273 153.67L23.7329 153.67L29.5922 153.721L30.8402 166.215C30.8445 166.259 30.84 166.304 30.8268 166.347C30.8136 166.39 30.792 166.43 30.7633 166.464C30.7346 166.498 30.6994 166.527 30.6597 166.547C30.62 166.568 30.5765 166.58 30.532 166.584L29.2888 166.684C29.2797 166.685 29.2707 166.685 29.2618 166.685Z" fill="#2F2E41"/>
<path d="M26.8421 142.222C27.8577 142.222 28.6811 141.397 28.6811 140.381C28.6811 139.364 27.8577 138.539 26.8421 138.539C25.8265 138.539 25.0032 139.364 25.0032 140.381C25.0032 141.397 25.8265 142.222 26.8421 142.222Z" fill="#FFB8B8"/>
<path d="M25.7156 155.13C25.3929 155.134 25.0716 155.088 24.7626 154.995C24.4878 154.912 24.2328 154.774 24.0135 154.589C23.7941 154.403 23.6149 154.175 23.4869 153.918C23.4464 153.84 23.4374 153.75 23.4618 153.666C23.6646 152.973 24.6447 149.371 24.0194 146.508C23.9311 146.11 23.9238 145.698 23.9978 145.298C24.0718 144.897 24.2257 144.515 24.4503 144.175C24.6696 143.838 24.9545 143.549 25.2881 143.324C25.6216 143.099 25.9969 142.944 26.3915 142.868V142.868C26.4952 142.848 26.5995 142.831 26.7014 142.819C27.1377 142.765 27.5804 142.808 27.9979 142.946C28.4155 143.083 28.7975 143.312 29.1166 143.614C29.4453 143.923 29.7017 144.3 29.8676 144.719C30.0335 145.139 30.1047 145.59 30.0762 146.04L29.5956 153.761C29.5923 153.819 29.574 153.875 29.5425 153.923C29.5111 153.972 29.4675 154.012 29.4161 154.038C28.8626 154.329 27.1999 155.13 25.7156 155.13Z" fill="#3F3D56"/>
<path d="M28.9195 139.025C28.7285 138.545 28.3786 138.144 27.9282 137.891C27.4778 137.637 26.9542 137.546 26.4448 137.632L27.0246 138.101C26.3042 138.126 25.5459 138.074 25.0315 138.58C25.1953 138.575 25.4099 138.926 25.5737 138.921C25.4204 138.932 25.2729 138.984 25.1464 139.071C25.0199 139.158 24.9192 139.278 24.8547 139.418C24.7294 139.7 24.7001 140.016 24.7713 140.317C24.9568 140.759 25.1726 141.189 25.4171 141.602C25.3958 140.869 26.8359 139.122 27.5392 139.305C27.1819 139.438 26.8718 139.673 26.6481 139.982C27.1266 139.74 27.6677 139.652 28.1981 139.728C28.3192 139.756 28.4442 139.763 28.5676 139.749C28.6433 139.734 28.7138 139.7 28.7725 139.65C28.8313 139.6 28.8762 139.535 28.903 139.463C28.9298 139.391 28.9377 139.312 28.9258 139.236C28.9139 139.16 28.8826 139.088 28.8351 139.027L28.9195 139.025Z" fill="#2F2E41"/>
<path d="M25.5889 154.666C25.5424 154.666 25.4965 154.656 25.454 154.637L21.9649 153.113C21.8907 153.081 21.8306 153.023 21.7955 152.951C21.7603 152.878 21.7526 152.795 21.7737 152.717L24.0835 143.982C24.1264 143.819 24.2013 143.667 24.3038 143.534C24.4063 143.4 24.5343 143.289 24.6803 143.206C24.8263 143.123 24.9874 143.07 25.1541 143.05C25.3209 143.03 25.4899 143.043 25.6514 143.089L26.575 143.353L25.9248 154.348C25.9215 154.402 25.9051 154.455 25.8771 154.502C25.8492 154.548 25.8104 154.587 25.7641 154.616C25.7115 154.648 25.6508 154.666 25.5889 154.666Z" fill="#F9A826"/>
<path d="M32.0465 152.717L31.8929 152.138L31.6706 151.295L31.5635 150.891L31.3412 150.051L29.7366 143.981C29.6938 143.819 29.619 143.666 29.5166 143.533C29.4141 143.4 29.2861 143.288 29.1401 143.205C28.9941 143.122 28.8329 143.069 28.6661 143.049C28.4993 143.029 28.3303 143.043 28.1688 143.089L27.2456 143.353L27.7031 151.087L27.7503 151.894L27.7802 152.403V152.404L27.8281 153.207L27.8955 154.348C27.901 154.434 27.9388 154.514 28.0011 154.573C28.0635 154.632 28.1459 154.665 28.2317 154.666C28.2781 154.666 28.3239 154.656 28.3665 154.638L31.8555 153.113C31.9297 153.081 31.9899 153.024 32.025 152.951C32.06 152.878 32.0677 152.795 32.0465 152.717Z" fill="#F9A826"/>
<path d="M31.5635 150.891L27.7501 151.894L27.7029 151.087L31.3411 150.051L31.5635 150.891Z" fill="#CCCCCC"/>
<path d="M31.893 152.138L27.8281 153.207L27.78 152.404V152.403L31.6705 151.295L31.893 152.138Z" fill="#CCCCCC"/>
<path d="M26.0703 151.261L26.0231 152.053L22.2832 150.938L22.5024 150.108L26.0703 151.261Z" fill="#CCCCCC"/>
<path d="M25.9924 152.575L22.1762 151.342L21.9566 152.173L25.946 153.362L25.9924 152.575Z" fill="#CCCCCC"/>
<path d="M22.2425 153.403C22.3563 153.374 22.4622 153.319 22.5527 153.244C22.6432 153.169 22.7162 153.075 22.7665 152.968C22.8168 152.862 22.8431 152.746 22.8437 152.628C22.8443 152.51 22.8191 152.394 22.7699 152.287L24.564 146.648L23.2918 146.382L21.6469 151.91C21.473 152.005 21.3398 152.16 21.2726 152.346C21.2054 152.533 21.2088 152.737 21.2822 152.921C21.3556 153.106 21.4939 153.256 21.6709 153.345C21.8479 153.434 22.0513 153.455 22.2425 153.403V153.403Z" fill="#FFB8B8"/>
<path d="M24.6138 143.876C24.9791 143.914 25.1846 144.325 25.0937 144.837L24.6579 147.294C24.6252 147.478 24.4738 147.624 24.348 147.592L22.8737 147.223C22.7603 147.195 22.7185 147.034 22.7828 146.872L23.6678 144.649C23.7277 144.439 23.8505 144.252 24.0196 144.114C24.1887 143.976 24.3961 143.893 24.6138 143.876Z" fill="#3F3D56"/>
<path d="M26.8353 136.935C27.4577 136.935 28.0556 137.177 28.5025 137.611C28.9493 138.045 29.21 138.636 29.2293 139.258H29.6805C29.7202 139.258 29.7583 139.274 29.7864 139.302C29.8144 139.33 29.8302 139.369 29.8302 139.408V140.008C29.8302 140.048 29.8144 140.086 29.7864 140.114C29.7583 140.142 29.7202 140.158 29.6805 140.158H24.5891C24.5494 140.158 24.5113 140.142 24.4833 140.114C24.4552 140.086 24.4394 140.048 24.4394 140.008V139.333C24.4394 139.018 24.5014 138.706 24.6218 138.415C24.7422 138.124 24.9187 137.86 25.1411 137.637C25.3636 137.414 25.6277 137.238 25.9184 137.117C26.2091 136.997 26.5207 136.935 26.8353 136.935Z" fill="#F9A826"/>
<path d="M27.1216 151.762H26.0632C26.0293 151.762 25.9965 151.749 25.9714 151.726C25.9462 151.704 25.9305 151.672 25.9273 151.638L25.7154 149.464H27.4694L27.2576 151.638C27.2544 151.672 27.2387 151.704 27.2135 151.726C27.1884 151.749 27.1556 151.762 27.1216 151.762Z" fill="#E6E6E6"/>
<path d="M27.4666 149.738H25.7182C25.682 149.738 25.6473 149.723 25.6217 149.698C25.5961 149.672 25.5817 149.637 25.5816 149.601V149.273C25.5817 149.237 25.5961 149.202 25.6217 149.176C25.6473 149.151 25.682 149.136 25.7182 149.136H27.4666C27.5028 149.136 27.5375 149.151 27.5631 149.176C27.5888 149.202 27.6032 149.237 27.6032 149.273V149.601C27.6032 149.637 27.5888 149.672 27.5631 149.698C27.5375 149.723 27.5028 149.738 27.4666 149.738Z" fill="#CCCCCC"/>
<path d="M26.6151 150.596C26.6563 150.601 26.697 150.609 26.7369 150.62L29.5556 148.2L29.3908 147.312L30.6968 146.888L31.1411 148.431C31.177 148.556 31.1715 148.689 31.1255 148.81C31.0794 148.932 30.9953 149.035 30.8858 149.104L27.3161 151.366C27.3186 151.525 27.2725 151.682 27.1839 151.815C27.0952 151.948 26.9683 152.051 26.8199 152.11C26.6716 152.168 26.5088 152.181 26.3533 152.145C26.1978 152.109 26.0569 152.026 25.9494 151.908C25.8419 151.79 25.7728 151.642 25.7514 151.484C25.73 151.325 25.7572 151.164 25.8295 151.022C25.9018 150.879 26.0156 150.762 26.156 150.686C26.2963 150.61 26.4565 150.579 26.6152 150.596H26.6151Z" fill="#FFB8B8"/>
<path d="M29.5629 144.079C29.9531 143.97 30.343 144.267 30.4737 144.774L31.1006 147.205C31.1476 147.387 31.0563 147.581 30.9138 147.601L29.2436 147.842C29.1151 147.86 29.0019 147.728 28.9971 147.554L28.9323 145.162C28.9075 144.938 28.9554 144.711 29.0689 144.516C29.1825 144.321 29.3557 144.168 29.5629 144.079Z" fill="#3F3D56"/>
<path d="M48.5473 150.656H47.2757C47.2349 150.656 47.1955 150.641 47.1653 150.613C47.1351 150.586 47.1162 150.548 47.1124 150.507L46.8578 147.896H48.9651L48.7106 150.507C48.7068 150.548 48.6879 150.586 48.6577 150.613C48.6275 150.641 48.5881 150.656 48.5473 150.656Z" fill="#E6E6E6"/>
<path d="M48.9618 148.224H46.8612C46.8177 148.224 46.776 148.207 46.7452 148.176C46.7145 148.145 46.6972 148.103 46.6971 148.06V147.666C46.6972 147.622 46.7145 147.58 46.7452 147.549C46.776 147.519 46.8177 147.501 46.8612 147.501H48.9618C49.0053 147.501 49.047 147.519 49.0777 147.549C49.1085 147.58 49.1258 147.622 49.1259 147.666V148.06C49.1258 148.103 49.1085 148.145 49.0777 148.176C49.047 148.207 49.0053 148.224 48.9618 148.224Z" fill="#CCCCCC"/>
<path d="M61.0399 165.994C60.1161 164.764 59.3857 163.399 58.8742 161.947C58.8446 161.861 58.8467 161.766 58.8802 161.681C58.9137 161.595 58.9763 161.524 59.057 161.481L62.2185 159.785C62.2696 159.757 62.3264 159.742 62.3845 159.739C62.4426 159.737 62.5004 159.748 62.5536 159.771C62.6078 159.795 62.656 159.831 62.6943 159.876C62.7327 159.921 62.7603 159.974 62.775 160.031C63.143 161.43 63.8347 162.722 64.7941 163.804C64.8336 163.848 64.8626 163.9 64.8787 163.957C64.8949 164.014 64.8979 164.074 64.8875 164.132C64.8775 164.189 64.8546 164.244 64.8204 164.291C64.7863 164.338 64.7419 164.377 64.6906 164.404L61.5291 166.1C61.4482 166.143 61.3547 166.156 61.2651 166.137C61.1755 166.117 61.0957 166.067 61.0399 165.994Z" fill="#CCCCCC"/>
<path d="M61.2557 165.832C61.2727 165.853 61.2966 165.867 61.3232 165.873C61.3498 165.878 61.3776 165.875 61.4016 165.862L64.5631 164.166C64.5784 164.158 64.5917 164.146 64.6019 164.132C64.6121 164.118 64.6189 164.102 64.6218 164.085C64.6251 164.067 64.6242 164.048 64.6191 164.031C64.614 164.013 64.6049 163.997 64.5926 163.983C63.6048 162.87 62.8928 161.54 62.514 160.1C62.5096 160.082 62.5012 160.065 62.4893 160.051C62.4775 160.037 62.4626 160.026 62.4458 160.019C62.43 160.012 62.4127 160.009 62.3954 160.009C62.378 160.01 62.3611 160.015 62.3459 160.023L59.1845 161.719C59.1605 161.732 59.1418 161.753 59.1317 161.778C59.1215 161.804 59.1205 161.832 59.1287 161.858C59.631 163.283 60.3483 164.623 61.2557 165.832Z" fill="white"/>
<path d="M62.426 162.205L60.7042 162.966C60.6387 162.995 60.5644 162.997 60.4977 162.971C60.431 162.945 60.3773 162.894 60.3483 162.828L60.3057 162.732C60.2769 162.666 60.2752 162.592 60.3011 162.525C60.3269 162.458 60.3782 162.404 60.4436 162.375L62.1655 161.614C62.231 161.586 62.3052 161.584 62.3719 161.61C62.4386 161.636 62.4924 161.687 62.5213 161.752L62.5639 161.849C62.5928 161.915 62.5944 161.989 62.5686 162.056C62.5427 162.123 62.4915 162.176 62.426 162.205Z" fill="#CCCCCC"/>
<path d="M63.0557 163.376L61.3338 164.137C61.2684 164.166 61.1941 164.168 61.1274 164.142C61.0607 164.116 61.0069 164.064 60.978 163.999L60.9354 163.902C60.9066 163.837 60.9049 163.763 60.9308 163.696C60.9566 163.629 61.0079 163.575 61.0733 163.546L62.7952 162.785C62.8607 162.756 62.9349 162.755 63.0016 162.781C63.0683 162.806 63.1221 162.858 63.151 162.923L63.1936 163.02C63.2224 163.085 63.2241 163.16 63.1983 163.227C63.1724 163.293 63.1211 163.347 63.0557 163.376Z" fill="#CCCCCC"/>
<path d="M59.0173 162.401C58.8985 162.324 58.7979 162.222 58.7226 162.103C58.6473 161.983 58.5991 161.848 58.5814 161.708C58.5637 161.568 58.577 161.425 58.6202 161.291C58.6635 161.156 58.7357 161.032 58.8318 160.929L58.1057 150.612L60.1974 150.815L60.2548 160.918C60.4181 161.091 60.5122 161.319 60.5194 161.557C60.5266 161.795 60.4463 162.027 60.2937 162.21C60.1412 162.392 59.927 162.513 59.6918 162.548C59.4565 162.583 59.2166 162.531 59.0173 162.401Z" fill="#A0616A"/>
<path d="M58.5792 154.079C58.5302 154.043 58.4898 153.997 58.4608 153.944C58.4319 153.891 58.4152 153.833 58.412 153.772L58.2587 150.992C58.2436 150.716 58.3308 150.445 58.5036 150.23C58.6765 150.015 58.9227 149.872 59.1948 149.828C59.4668 149.784 59.7455 149.842 59.9771 149.992C60.2086 150.142 60.3767 150.372 60.4488 150.638L61.1221 153.124C61.15 153.228 61.1358 153.338 61.0824 153.432C61.029 153.525 60.9409 153.593 60.8373 153.621L58.9221 154.141C58.8639 154.157 58.8029 154.16 58.7436 154.149C58.6842 154.138 58.628 154.114 58.5792 154.079Z" fill="#3F3D56"/>
<path d="M55.014 175.084L53.9114 175.084L53.3866 170.826H55.0144L55.014 175.084Z" fill="#A0616A"/>
<path d="M52.8773 174.769H55.2504V176.109H51.7844V175.863C51.7844 175.719 51.8127 175.577 51.8676 175.444C51.9225 175.311 52.003 175.191 52.1045 175.089C52.206 174.987 52.3265 174.907 52.4591 174.852C52.5917 174.797 52.7338 174.769 52.8773 174.769Z" fill="#2F2E41"/>
<path d="M59.1519 175.084L58.0494 175.084L57.5246 170.826H59.1523L59.1519 175.084Z" fill="#A0616A"/>
<path d="M57.0152 174.769H59.3884V176.109H55.9223V175.863C55.9223 175.719 55.9506 175.577 56.0055 175.444C56.0604 175.311 56.1409 175.191 56.2424 175.089C56.3439 174.987 56.4644 174.907 56.597 174.852C56.7296 174.797 56.8717 174.769 57.0152 174.769Z" fill="#2F2E41"/>
<path d="M54.9621 172.939L53.748 172.881C53.6446 172.876 53.547 172.831 53.4753 172.757C53.4035 172.682 53.3632 172.583 53.3625 172.479C53.0424 167.533 52.5991 162.23 53.2777 160.181C53.2773 160.122 53.2895 160.065 53.3135 160.011C53.3375 159.958 53.3726 159.911 53.4166 159.872C53.4605 159.834 53.5123 159.806 53.5682 159.789C53.6241 159.773 53.683 159.769 53.7407 159.777L58.5976 160.483C58.6936 160.496 58.7815 160.544 58.8452 160.617C58.9089 160.69 58.9441 160.784 58.9443 160.881C59.5644 163.307 59.5924 167.706 59.569 172.276C59.5694 172.33 59.5592 172.383 59.539 172.432C59.5189 172.482 59.4891 172.527 59.4515 172.565C59.4139 172.603 59.3691 172.633 59.3198 172.653C59.2705 172.674 59.2176 172.685 59.1642 172.685H57.8553C57.7588 172.685 57.6653 172.651 57.5919 172.588C57.5185 172.525 57.4701 172.438 57.4554 172.342L56.6479 167.203C56.6361 167.128 56.5975 167.059 56.5393 167.01C56.4811 166.961 56.4071 166.935 56.3311 166.937C56.2551 166.938 56.1821 166.967 56.1257 167.018C56.0693 167.069 56.0333 167.139 56.0243 167.214L55.3833 172.582C55.3712 172.68 55.3237 172.771 55.2497 172.837C55.1757 172.902 55.0802 172.939 54.9813 172.939C54.9749 172.939 54.9685 172.939 54.9621 172.939Z" fill="#2F2E41"/>
<path d="M55.8167 160.881C55.1078 160.464 54.3221 160.195 53.5067 160.089C53.4531 160.084 53.4011 160.068 53.3539 160.042C53.3067 160.016 53.2652 159.981 53.232 159.939C53.198 159.896 53.1731 159.847 53.1587 159.794C53.1443 159.741 53.1408 159.686 53.1482 159.632L54.312 150.982C54.379 150.476 54.5743 149.996 54.8791 149.586C55.184 149.177 55.5884 148.853 56.0539 148.644C56.5044 148.437 57.0004 148.349 57.4948 148.387C57.9891 148.426 58.4653 148.591 58.878 148.866C58.9179 148.893 58.9571 148.92 58.9954 148.947C59.4708 149.296 59.8324 149.778 60.0347 150.332C60.237 150.886 60.2709 151.488 60.1322 152.061C59.4185 154.984 59.1734 159.776 59.1315 160.707C59.1282 160.786 59.1015 160.862 59.0548 160.927C59.0081 160.991 58.9434 161.04 58.869 161.067C58.4299 161.227 57.9665 161.31 57.4993 161.311C56.9109 161.315 56.3314 161.167 55.8167 160.881Z" fill="#3F3D56"/>
<path d="M56.7902 147.47C58.0104 147.47 58.9995 146.48 58.9995 145.258C58.9995 144.036 58.0104 143.046 56.7902 143.046C55.57 143.046 54.5808 144.036 54.5808 145.258C54.5808 146.48 55.57 147.47 56.7902 147.47Z" fill="#A0616A"/>
<path d="M58.3536 147.008C58.2612 147.108 58.1423 147.179 58.0109 147.213C57.8795 147.248 57.741 147.244 57.6117 147.202C57.4823 147.161 57.3676 147.083 57.2809 146.978C57.1942 146.873 57.1392 146.746 57.1223 146.611C57.1181 146.565 57.1184 146.518 57.1232 146.471C57.2037 146.215 57.2522 145.95 57.2677 145.683C57.2593 145.613 57.2333 145.546 57.1921 145.489C56.8636 145.049 56.0926 145.686 55.7827 145.288C55.5926 145.043 55.816 144.658 55.6702 144.385C55.4776 144.025 54.9074 144.202 54.5499 144.005C54.152 143.785 54.1758 143.174 54.4377 142.802C54.6082 142.583 54.8249 142.403 55.0725 142.277C55.3201 142.151 55.5924 142.081 55.8701 142.072C56.4261 142.059 56.9783 142.167 57.4886 142.389C58.0912 142.585 58.623 142.954 59.0179 143.45C59.2222 143.776 59.3517 144.142 59.3969 144.524C59.4422 144.906 59.4021 145.293 59.2796 145.657C59.0635 146.164 58.7487 146.624 58.3536 147.008Z" fill="#2F2E41"/>
<path d="M60.1033 149.159C60.0646 148.977 59.7327 148.728 59.2577 148.525C58.4943 148.216 57.6686 148.091 56.8479 148.162C56.0273 148.232 55.2348 148.496 54.5351 148.931C54.4863 148.933 54.4397 148.952 54.4025 148.984C54.3653 149.015 54.3395 149.058 54.3291 149.106L52.7315 156.18L52.5237 157.102L52.3861 157.711L52.1783 158.63L52.0677 159.121C52.0606 159.152 52.0603 159.185 52.0668 159.216C52.0733 159.248 52.0864 159.277 52.1053 159.303C52.1242 159.329 52.1485 159.351 52.1764 159.367C52.2044 159.383 52.2354 159.392 52.2674 159.395L59.166 159.992C59.1723 159.992 59.1795 159.992 59.1858 159.992C59.2427 159.992 59.2974 159.97 59.3388 159.931C59.3802 159.892 59.4052 159.839 59.4089 159.782L59.4745 158.781L59.5447 157.711L59.5753 157.247L59.6446 156.18L60.1042 149.17V149.164L60.1033 149.159Z" fill="#F9A826"/>
<path d="M48.7839 149.604C48.7949 149.652 48.8021 149.702 48.8054 149.751L52.6696 151.983L53.6089 151.442L54.6102 152.754L52.6008 154.188L48.1923 150.706C48.0125 150.773 47.8167 150.783 47.631 150.736C47.4452 150.688 47.2783 150.585 47.1525 150.44C47.0266 150.295 46.9478 150.116 46.9264 149.925C46.9051 149.734 46.9422 149.542 47.0329 149.372C47.1237 149.203 47.2637 149.066 47.4343 148.978C47.6049 148.891 47.7981 148.857 47.9882 148.883C48.1783 148.908 48.3562 148.99 48.4983 149.119C48.6405 149.248 48.7401 149.417 48.7839 149.604V149.604Z" fill="#A0616A"/>
<path d="M52.8076 151.794C52.8012 151.733 52.8083 151.673 52.8284 151.616C52.8486 151.559 52.8812 151.507 52.9239 151.465L54.8907 149.495C55.0855 149.3 55.3456 149.184 55.6208 149.17C55.8961 149.155 56.1669 149.243 56.3811 149.417C56.5953 149.59 56.7377 149.837 56.7809 150.11C56.8241 150.382 56.7649 150.661 56.6149 150.892L55.2143 153.053C55.1558 153.143 55.064 153.206 54.959 153.229C54.854 153.251 54.7445 153.231 54.6544 153.172L52.9899 152.091C52.9392 152.058 52.8965 152.014 52.865 151.963C52.8334 151.912 52.8138 151.854 52.8076 151.794Z" fill="#3F3D56"/>
<path d="M59.6445 156.18L59.5754 157.248L52.5235 157.102L52.7314 156.18H59.6445Z" fill="#CCCCCC"/>
<path d="M59.5447 157.711L59.4745 158.781L52.1783 158.63L52.3862 157.711H59.5447Z" fill="#CCCCCC"/>
<path d="M56.8334 140.961C56.0857 140.961 55.3673 141.252 54.8304 141.773C54.2936 142.294 53.9804 143.004 53.9572 143.752H53.4151C53.3674 143.752 53.3217 143.771 53.2879 143.805C53.2542 143.839 53.2352 143.885 53.2352 143.932V144.653C53.2352 144.701 53.2542 144.746 53.2879 144.78C53.3217 144.814 53.3674 144.833 53.4151 144.833H59.5321C59.5798 144.833 59.6255 144.814 59.6593 144.78C59.693 144.746 59.712 144.701 59.712 144.653V143.842C59.712 143.464 59.6375 143.089 59.4929 142.74C59.3482 142.39 59.1362 142.072 58.8689 141.805C58.6016 141.537 58.2842 141.325 57.935 141.18C57.5858 141.035 57.2114 140.961 56.8334 140.961Z" fill="#F9A826"/>
<path d="M73.0342 170.279H72.4173C72.4133 170.204 71.585 168.258 71.585 168.258L71.0843 167.046L70.7534 166.237L70.2527 165.025L69.6794 163.631C69.6648 163.568 69.6293 163.512 69.5787 163.471C69.5281 163.431 69.4655 163.409 69.4009 163.409C69.3363 163.409 69.2737 163.431 69.2231 163.471C69.1725 163.512 69.137 163.568 69.1224 163.631L68.5491 165.025L68.0485 166.237L67.7175 167.046L67.2168 168.258C67.2168 168.258 66.3885 170.204 66.3845 170.279H65.7676C65.607 170.279 65.4529 170.343 65.3394 170.457C65.2258 170.57 65.162 170.725 65.162 170.885C65.162 171.046 65.2258 171.2 65.3394 171.314C65.4529 171.428 65.607 171.492 65.7676 171.492H73.0342C73.1948 171.492 73.3489 171.428 73.4624 171.314C73.576 171.2 73.6398 171.046 73.6398 170.885C73.6398 170.725 73.576 170.57 73.4624 170.457C73.3489 170.343 73.1948 170.279 73.0342 170.279Z" fill="#FF6584"/>
<path d="M72.6305 180.787H72.3914C72.4133 180.736 71.3508 178.015 71.3508 178.015L70.7129 176.459L70.285 175.416L69.6471 173.86L68.9528 172.175C68.9333 172.095 68.8877 172.024 68.8233 171.974C68.7589 171.923 68.6794 171.896 68.5975 171.896C68.5157 171.896 68.4362 171.923 68.3718 171.974C68.3074 172.024 68.2618 172.095 68.2422 172.175L67.548 173.86L66.9101 175.416L66.478 176.459L65.8403 178.015C65.8403 178.015 64.7817 180.736 64.8036 180.787H64.5564C64.3958 180.787 64.2418 180.851 64.1282 180.965C64.0147 181.079 63.9509 181.233 63.9509 181.394C63.9509 181.555 64.0147 181.709 64.1282 181.822C64.2418 181.936 64.3958 182 64.5564 182H72.6305C72.7911 182 72.9452 181.936 73.0587 181.822C73.1723 181.709 73.2361 181.555 73.2361 181.394C73.2361 181.233 73.1723 181.079 73.0587 180.965C72.9452 180.851 72.7911 180.787 72.6305 180.787Z" fill="#FF6584"/>
<path d="M70.7532 166.238H68.0484L68.549 165.025H70.2526L70.7532 166.238Z" fill="#F2F2F2"/>
<path d="M71.5848 168.258H67.2167L67.7173 167.046H71.0842L71.5848 168.258Z" fill="#F2F2F2"/>
<path d="M70.2849 175.416H66.9099L67.5478 173.86H69.647L70.2849 175.416Z" fill="#F2F2F2"/>
<path d="M71.3507 178.015H65.8401L66.478 176.459H70.7128L71.3507 178.015Z" fill="#F2F2F2"/>
<path d="M161.722 147.139C161.784 147.077 161.832 147.003 161.863 146.92C161.893 146.838 161.905 146.75 161.898 146.662C161.891 146.575 161.864 146.49 161.821 146.414C161.777 146.338 161.718 146.272 161.646 146.221L161.343 144.222L160.099 144.614L160.781 146.398C160.704 146.524 160.676 146.674 160.702 146.819C160.728 146.965 160.806 147.096 160.923 147.187C161.039 147.278 161.184 147.324 161.331 147.315C161.479 147.306 161.618 147.244 161.722 147.139Z" fill="#FFB8B8"/>
<path d="M160.44 146.199L159.673 142.61C159.598 142.267 159.613 141.909 159.715 141.573C159.818 141.237 160.005 140.932 160.259 140.689C161.241 139.741 162.504 138.547 162.94 138.238C163.349 137.945 163.845 137.799 164.347 137.822L164.357 137.823L165.018 138.448L163.579 140.818L161.396 142.187L161.639 145.704L160.44 146.199Z" fill="#F9A826"/>
<path d="M163.128 141.322H159.907C159.768 141.322 159.655 141.436 159.655 141.575C159.655 141.715 159.768 141.828 159.907 141.828H163.128C163.268 141.828 163.381 141.715 163.381 141.575C163.381 141.436 163.268 141.322 163.128 141.322Z" fill="#CCCCCC"/>
<path d="M163.128 146.823H159.907C159.768 146.823 159.655 146.936 159.655 147.076C159.655 147.215 159.768 147.328 159.907 147.328H163.128C163.268 147.328 163.381 147.215 163.381 147.076C163.381 146.936 163.268 146.823 163.128 146.823Z" fill="#CCCCCC"/>
<path d="M161.549 160.605C161.518 160.605 161.487 160.593 161.464 160.572C161.441 160.55 161.426 160.521 161.424 160.49L159.814 141.586C159.812 141.57 159.814 141.553 159.819 141.537C159.824 141.521 159.832 141.507 159.842 141.494C159.853 141.481 159.866 141.471 159.881 141.463C159.895 141.455 159.912 141.45 159.928 141.449C159.945 141.448 159.961 141.449 159.977 141.454C159.993 141.459 160.008 141.467 160.02 141.478C160.033 141.489 160.044 141.502 160.051 141.517C160.059 141.531 160.064 141.548 160.065 141.564L161.548 159.029L162.988 141.564C162.989 141.548 162.994 141.532 163.001 141.517C163.009 141.502 163.02 141.489 163.032 141.478C163.045 141.467 163.06 141.459 163.075 141.454C163.091 141.449 163.108 141.447 163.125 141.449C163.141 141.45 163.157 141.455 163.172 141.463C163.187 141.47 163.2 141.481 163.211 141.494C163.221 141.506 163.229 141.521 163.234 141.537C163.239 141.553 163.241 141.57 163.24 141.586L161.675 160.489C161.672 160.521 161.658 160.55 161.635 160.572C161.612 160.593 161.581 160.605 161.55 160.605L161.549 160.605Z" fill="#CCCCCC"/>
<path d="M165.164 137.065C166.079 137.065 166.821 136.323 166.821 135.406C166.821 134.49 166.079 133.748 165.164 133.748C164.249 133.748 163.507 134.49 163.507 135.406C163.507 136.323 164.249 137.065 165.164 137.065Z" fill="#FFB8B8"/>
<path d="M160.225 159.847L159.437 159.595L160.031 156.433L161.194 156.804L160.225 159.847Z" fill="#FFB8B8"/>
<path d="M160.182 160.547L157.645 159.737L157.666 159.671C157.747 159.419 157.924 159.209 158.159 159.087C158.394 158.965 158.668 158.942 158.92 159.022L160.506 159.528L160.182 160.547Z" fill="#2F2E41"/>
<path d="M165.959 159.83H165.132L164.738 156.637H165.959V159.83Z" fill="#FFB8B8"/>
<path d="M163.568 160.568H166.104V159.625H164.503C164.255 159.626 164.018 159.724 163.842 159.9C163.667 160.075 163.568 160.313 163.568 160.562V160.568Z" fill="#2F2E41"/>
<path d="M165.935 158.794L165.655 158.752C165.305 158.731 164.958 158.666 164.624 158.559C164.555 158.529 164.55 158.073 164.591 155.509C164.622 153.626 164.659 151.283 164.586 150.026C164.583 149.976 164.564 149.929 164.531 149.892C164.497 149.855 164.453 149.83 164.404 149.821C164.355 149.813 164.305 149.821 164.261 149.844C164.217 149.868 164.183 149.906 164.163 149.951C163.533 151.408 162.476 154.667 161.777 156.824C161.533 157.574 161.341 158.166 161.22 158.522C161.196 158.589 161.149 158.645 161.086 158.679C161.024 158.712 160.951 158.722 160.882 158.705C160.306 158.561 160.345 158.499 159.525 158.287C159.454 158.269 159.393 158.224 159.354 158.162C159.316 158.1 159.302 158.025 159.318 157.953C159.466 157.253 162.179 145.903 162.387 144.824C162.394 144.787 162.408 144.752 162.429 144.721C162.45 144.69 162.476 144.663 162.507 144.642C162.538 144.621 162.573 144.606 162.61 144.599C162.647 144.591 162.685 144.591 162.722 144.599C163.333 144.722 163.704 144.853 164.308 144.979C164.96 145.115 165.633 145.256 166.29 145.388C166.356 145.401 166.414 145.437 166.456 145.49C166.639 145.686 166.864 145.837 167.114 145.933C167.286 146.015 166.897 146.008 167.046 146.126C167.653 146.607 166.781 156.374 166.253 158.58C166.236 158.649 166.194 158.709 166.135 158.749C166.076 158.788 166.005 158.804 165.935 158.794V158.794Z" fill="#2F2E41"/>
<path d="M165.87 136.858C165.773 136.447 166.262 135.563 166.165 135.152C166.1 134.873 165.446 135.063 165.294 134.821C165.223 134.696 165.123 134.591 165.002 134.514C164.881 134.437 164.743 134.391 164.6 134.38C164.272 134.377 163.949 134.62 163.638 134.515C163.564 134.478 163.499 134.428 163.445 134.365C163.391 134.303 163.35 134.231 163.325 134.153C163.299 134.075 163.289 133.993 163.295 133.911C163.302 133.829 163.325 133.749 163.362 133.676C163.528 133.385 163.787 133.158 164.096 133.031C164.584 132.733 165.168 132.634 165.726 132.757C166.045 132.881 166.338 133.065 166.588 133.299C166.839 133.485 167.059 133.709 167.241 133.963C167.395 134.227 167.479 134.527 167.484 134.834C167.489 135.14 167.415 135.443 167.269 135.712C166.967 136.25 166.486 136.664 165.91 136.883" fill="#2F2E41"/>
<path d="M161.801 146.421C161.98 146.122 162.252 144.721 162.587 142.368C162.814 140.763 163.013 139.131 163.112 138.298C163.119 138.23 163.144 138.166 163.183 138.111C163.223 138.055 163.275 138.011 163.336 137.982C163.4 137.951 163.464 137.921 163.527 137.894C164.286 137.546 165.128 137.423 165.954 137.539C166.781 137.656 167.557 138.006 168.19 138.55L168.198 138.557L168.2 138.567C168.203 138.585 168.545 140.432 167.844 141.679C167.153 142.91 167.145 146.169 167.145 146.202V146.244L167.105 146.233C166.029 145.925 161.874 146.463 161.833 146.469L161.768 146.477L161.801 146.421Z" fill="#F9A826"/>
<path d="M168.054 142.144H164.833C164.694 142.144 164.581 142.257 164.581 142.397C164.581 142.537 164.694 142.65 164.833 142.65H168.054C168.193 142.65 168.306 142.537 168.306 142.397C168.306 142.257 168.193 142.144 168.054 142.144Z" fill="#CCCCCC"/>
<path d="M168.054 147.645H164.833C164.694 147.645 164.581 147.758 164.581 147.897C164.581 148.037 164.694 148.15 164.833 148.15H168.054C168.193 148.15 168.306 148.037 168.306 147.897C168.306 147.758 168.193 147.645 168.054 147.645Z" fill="#CCCCCC"/>
<path d="M166.475 160.668C166.443 160.668 166.413 160.656 166.39 160.635C166.366 160.614 166.352 160.584 166.349 160.553L164.739 142.408C164.736 142.375 164.747 142.342 164.768 142.316C164.79 142.29 164.82 142.274 164.854 142.271C164.887 142.268 164.92 142.279 164.946 142.3C164.972 142.322 164.988 142.353 164.991 142.386L166.473 159.092L167.913 142.386C167.915 142.37 167.919 142.354 167.927 142.339C167.935 142.324 167.945 142.311 167.958 142.3C167.971 142.289 167.985 142.281 168.001 142.276C168.017 142.271 168.034 142.269 168.05 142.271C168.067 142.272 168.083 142.277 168.098 142.284C168.112 142.292 168.125 142.303 168.136 142.315C168.147 142.328 168.155 142.343 168.16 142.359C168.165 142.375 168.167 142.391 168.165 142.408L166.601 160.553C166.598 160.584 166.584 160.613 166.56 160.635C166.537 160.656 166.507 160.668 166.475 160.668L166.475 160.668Z" fill="#CCCCCC"/>
<path d="M165.435 147.725C165.416 147.639 165.416 147.55 165.436 147.464C165.455 147.379 165.492 147.298 165.546 147.229C165.6 147.159 165.668 147.102 165.746 147.062C165.824 147.022 165.909 146.999 165.997 146.996L167.336 145.482L168.168 146.488L166.628 147.615C166.624 147.762 166.566 147.903 166.465 148.011C166.364 148.119 166.227 148.186 166.08 148.2C165.933 148.213 165.786 148.173 165.667 148.085C165.549 147.997 165.466 147.869 165.435 147.725H165.435Z" fill="#FFB8B8"/>
<path d="M166.215 146.671L168.328 143.851L167.238 141.514L167.317 138.742L168.21 138.577L168.22 138.581C168.654 138.835 168.99 139.228 169.175 139.696C169.374 140.192 169.785 141.882 170.095 143.212C170.177 143.554 170.168 143.911 170.072 144.25C169.976 144.588 169.794 144.896 169.545 145.144L166.953 147.738L166.215 146.671Z" fill="#F9A826"/>
<path d="M157.358 159.884L160.249 160.581C160.305 160.595 160.364 160.59 160.417 160.566C160.469 160.541 160.512 160.499 160.536 160.446L163.019 153.837C163.03 153.812 163.036 153.784 163.036 153.756C163.036 153.729 163.03 153.701 163.02 153.676C163.007 153.647 162.989 153.622 162.966 153.6C162.943 153.579 162.917 153.563 162.887 153.552L160.714 152.721C160.68 152.708 160.643 152.702 160.606 152.704C160.57 152.706 160.534 152.716 160.501 152.733C160.473 152.747 160.447 152.767 160.427 152.791C160.407 152.816 160.393 152.845 160.385 152.875L160.385 152.876L158.851 158.701L158.828 158.702C158.352 158.73 157.899 158.919 157.544 159.238C157.471 159.327 157.416 159.43 157.384 159.541C157.352 159.653 157.343 159.769 157.358 159.884Z" fill="#CCCCCC"/>
<path d="M159.452 156.179L159.438 156.305L162.074 156.584L162.087 156.458L159.452 156.179Z" fill="#B3B3B3"/>
<path d="M159.222 157.221L159.17 157.336L161.291 158.291L161.343 158.176L159.222 157.221Z" fill="#B3B3B3"/>
<path d="M162.364 155.573L159.865 154.744L159.917 154.629L162.416 155.457L162.364 155.573Z" fill="#B3B3B3"/>
<path d="M162.617 155.004L160.117 153.796L160.169 153.68L162.669 154.888L162.617 155.004Z" fill="#B3B3B3"/>
<path d="M159.001 158.211L158.919 158.307L160.722 159.848L160.804 159.752L159.001 158.211Z" fill="#B3B3B3"/>
<path d="M158.49 158.722L158.375 158.774L159.098 160.371L159.213 160.319L158.49 158.722Z" fill="#B3B3B3"/>
<path d="M228.935 147.668C228.828 147.643 228.728 147.595 228.641 147.527C228.555 147.459 228.484 147.373 228.435 147.275C228.385 147.177 228.357 147.069 228.354 146.959C228.35 146.849 228.371 146.74 228.414 146.638L225.641 140.367L227.228 139.967L229.454 146.257C229.619 146.341 229.748 146.483 229.815 146.656C229.883 146.828 229.885 147.02 229.821 147.194C229.757 147.368 229.631 147.512 229.468 147.599C229.305 147.687 229.115 147.711 228.935 147.668Z" fill="#A0616A"/>
<path d="M226.156 142.332C226.112 142.312 226.072 142.283 226.04 142.247C226.008 142.21 225.985 142.167 225.971 142.121L225.486 140.497C225.38 140.272 225.368 140.014 225.452 139.78C225.536 139.546 225.709 139.355 225.934 139.249C226.158 139.143 226.416 139.131 226.65 139.215C226.883 139.299 227.074 139.472 227.18 139.697L228.118 141.115C228.145 141.155 228.162 141.201 228.17 141.249C228.177 141.297 228.174 141.346 228.161 141.392C228.148 141.439 228.125 141.482 228.094 141.519C228.062 141.556 228.023 141.586 227.98 141.607L226.437 142.33C226.393 142.35 226.345 142.361 226.297 142.361C226.248 142.362 226.2 142.352 226.156 142.332Z" fill="#F9A826"/>
<path d="M231.8 141.523L230.1 142.729C230.078 142.744 230.052 142.753 230.025 142.753C229.998 142.753 229.972 142.744 229.95 142.729L229.49 142.383C229.475 142.372 229.462 142.357 229.453 142.341C229.445 142.324 229.44 142.306 229.439 142.287C229.438 142.268 229.441 142.249 229.449 142.231C229.456 142.214 229.468 142.198 229.482 142.186L230.791 141.018C230.808 141.003 230.829 140.992 230.851 140.988C230.874 140.984 230.897 140.985 230.918 140.993L231.77 141.298C231.792 141.306 231.811 141.32 231.826 141.338C231.84 141.356 231.85 141.378 231.853 141.401C231.856 141.425 231.853 141.448 231.843 141.47C231.834 141.491 231.819 141.509 231.8 141.523Z" fill="#3F3D56"/>
<path d="M231.662 141.409C231.666 141.398 231.666 141.385 231.661 141.374C231.656 141.363 231.647 141.355 231.636 141.35L230.868 141.075C230.861 141.073 230.853 141.072 230.845 141.074C230.837 141.075 230.829 141.079 230.823 141.084L229.643 142.138L229.636 142.145C229.633 142.149 229.63 142.155 229.629 142.16C229.628 142.166 229.627 142.172 229.628 142.178C229.629 142.183 229.631 142.189 229.634 142.194C229.638 142.199 229.642 142.203 229.646 142.206L230.06 142.517C230.067 142.523 230.077 142.526 230.086 142.526C230.096 142.525 230.105 142.522 230.113 142.517L231.646 141.43C231.653 141.425 231.659 141.417 231.662 141.409Z" fill="white"/>
<path d="M225.602 159.496H226.46L226.869 156.181H225.602V159.496Z" fill="#A0616A"/>
<path d="M225.383 159.215L227.073 159.215H227.073C227.215 159.215 227.355 159.243 227.486 159.297C227.616 159.351 227.735 159.431 227.835 159.531C227.935 159.631 228.014 159.75 228.069 159.881C228.123 160.012 228.151 160.152 228.151 160.293V160.329L225.383 160.329L225.383 159.215Z" fill="#2F2E41"/>
<path d="M222.731 159.496H223.59L223.998 156.181H222.731V159.496Z" fill="#A0616A"/>
<path d="M222.512 159.215L224.203 159.215H224.203C224.344 159.215 224.484 159.243 224.615 159.297C224.746 159.351 224.864 159.431 224.965 159.531C225.065 159.631 225.144 159.75 225.198 159.881C225.252 160.012 225.28 160.152 225.28 160.293V160.329L222.512 160.329L222.512 159.215Z" fill="#2F2E41"/>
<path d="M222.549 158.483C222.49 158.415 222.457 158.329 222.456 158.24C222.252 156.132 222.808 145.053 224.095 144.107L224.103 144.1L227.868 143.449L227.938 143.519C227.943 143.617 228.628 153.328 226.738 158.284C226.714 158.343 226.674 158.393 226.622 158.429C226.569 158.465 226.507 158.484 226.444 158.484H225.692C225.649 158.484 225.606 158.475 225.566 158.458C225.526 158.44 225.49 158.415 225.461 158.383C225.431 158.351 225.409 158.313 225.395 158.272C225.38 158.231 225.375 158.187 225.378 158.144L225.987 148.864C225.989 148.837 225.981 148.811 225.964 148.79C225.948 148.769 225.924 148.756 225.897 148.752C225.871 148.748 225.844 148.754 225.822 148.769C225.8 148.784 225.785 148.807 225.78 148.833L224.066 158.252C224.051 158.318 224.015 158.378 223.964 158.423C223.913 158.467 223.849 158.494 223.781 158.499L222.794 158.573C222.786 158.573 222.778 158.573 222.771 158.573C222.688 158.573 222.608 158.541 222.549 158.483Z" fill="#2F2E41"/>
<path d="M227.504 137.768C228.453 137.768 229.223 136.997 229.223 136.046C229.223 135.096 228.453 134.325 227.504 134.325C226.554 134.325 225.784 135.096 225.784 136.046C225.784 136.997 226.554 137.768 227.504 137.768Z" fill="#A0616A"/>
<path d="M223.362 145.615C223.289 145.541 223.247 145.442 223.245 145.338L223.947 142.047C223.387 139.664 224.133 139.217 224.974 138.765L224.969 138.763L225.32 137.81C225.332 137.768 225.352 137.729 225.38 137.695C225.408 137.661 225.443 137.634 225.483 137.616C225.523 137.598 225.566 137.588 225.61 137.588C225.653 137.589 225.697 137.599 225.736 137.618L227.528 138.571C227.609 138.616 227.669 138.692 227.695 138.781C227.725 138.875 227.723 138.977 227.689 139.07L227.557 139.429C227.899 139.886 228.428 141.696 227.868 142.397L228.291 144.733C228.3 144.819 228.279 144.906 228.231 144.978C228.183 145.049 228.111 145.102 228.028 145.126L223.612 145.694C223.595 145.697 223.577 145.699 223.56 145.699C223.485 145.698 223.414 145.668 223.362 145.615Z" fill="#F9A826"/>
<path d="M229.791 141.84C229.763 141.867 229.737 141.896 229.713 141.926L226.249 141.687L225.877 140.929L224.661 141.341L225.189 142.747C225.231 142.86 225.31 142.957 225.412 143.022C225.514 143.088 225.635 143.118 225.756 143.109L229.695 142.81C229.782 142.931 229.904 143.023 230.044 143.073C230.185 143.123 230.337 143.129 230.482 143.09C230.626 143.052 230.755 142.97 230.851 142.856C230.948 142.742 231.007 142.601 231.022 142.453C231.037 142.304 231.006 142.154 230.934 142.024C230.862 141.893 230.752 141.787 230.618 141.721C230.484 141.654 230.333 141.63 230.186 141.651C230.038 141.673 229.9 141.739 229.791 141.84V141.84Z" fill="#A0616A"/>
<path d="M226.12 141.699L224.61 142.202C224.567 142.216 224.521 142.221 224.476 142.216C224.431 142.211 224.388 142.197 224.349 142.174C224.31 142.151 224.277 142.119 224.251 142.082C224.225 142.045 224.208 142.002 224.2 141.958L223.925 140.393C223.853 140.173 223.871 139.933 223.976 139.726C224.08 139.519 224.263 139.362 224.483 139.289C224.703 139.216 224.943 139.234 225.15 139.338C225.357 139.443 225.514 139.625 225.587 139.845L226.301 141.257C226.322 141.298 226.333 141.342 226.335 141.387C226.337 141.433 226.329 141.478 226.312 141.52C226.294 141.562 226.268 141.599 226.235 141.63C226.202 141.661 226.163 141.685 226.12 141.699Z" fill="#F9A826"/>
<path d="M226.538 134.687C227.311 134.687 227.938 134.059 227.938 133.285C227.938 132.511 227.311 131.883 226.538 131.883C225.764 131.883 225.137 132.511 225.137 133.285C225.137 134.059 225.764 134.687 226.538 134.687Z" fill="#2F2E41"/>
<path d="M229.131 136.259C229.267 136.287 229.408 136.275 229.537 136.225C229.603 136.188 229.659 136.136 229.701 136.072C229.742 136.009 229.769 135.937 229.777 135.862C230.038 134.126 228.564 134.269 228.39 134.194C228.28 134.129 228.177 134.054 228.082 133.969C227.836 133.832 227.556 133.771 227.276 133.791C226.945 133.761 226.612 133.802 226.298 133.911C226.024 134.039 225.797 134.249 225.647 134.511C225.499 134.773 225.39 135.055 225.325 135.348C225.221 135.68 225.203 136.032 225.27 136.373C225.341 136.628 225.491 136.854 225.697 137.019C225.903 137.184 226.156 137.281 226.419 137.296C226.377 137.091 226.403 136.879 226.494 136.691C226.584 136.503 226.734 136.35 226.92 136.256C227.215 136.111 227.551 136.071 227.873 136.143C228.081 136.185 228.293 136.211 228.505 136.222C228.714 136.229 228.964 136.242 229.131 136.259Z" fill="#2F2E41"/>
<path d="M363.712 159.838C363.713 157.999 364.444 156.235 365.743 154.935C367.043 153.635 368.804 152.905 370.641 152.905C372.478 152.905 374.24 153.635 375.54 154.935C376.839 156.235 377.57 157.999 377.571 159.838" fill="#F2F2F2"/>
<path d="M370.641 159.838C370.592 159.838 370.544 159.818 370.509 159.783C370.474 159.748 370.454 159.7 370.454 159.65V155.994C370.454 155.944 370.474 155.896 370.509 155.861C370.544 155.826 370.592 155.806 370.641 155.806C370.691 155.806 370.739 155.826 370.774 155.861C370.809 155.896 370.829 155.944 370.829 155.994V159.65C370.829 159.7 370.809 159.748 370.774 159.783C370.739 159.818 370.691 159.838 370.641 159.838Z" fill="#CCCCCC"/>
<path d="M370.641 158.581C370.597 158.581 370.553 158.565 370.519 158.536L368.272 156.605C368.253 156.589 368.237 156.569 368.226 156.547C368.215 156.525 368.208 156.501 368.206 156.477C368.204 156.452 368.207 156.427 368.215 156.403C368.222 156.38 368.234 156.358 368.251 156.339C368.267 156.321 368.286 156.305 368.308 156.294C368.33 156.283 368.355 156.276 368.379 156.274C368.404 156.273 368.429 156.276 368.452 156.284C368.476 156.292 368.497 156.304 368.516 156.32L370.763 158.251C370.792 158.276 370.813 158.31 370.823 158.347C370.832 158.384 370.83 158.423 370.817 158.459C370.804 158.495 370.78 158.526 370.748 158.548C370.717 158.57 370.679 158.581 370.641 158.581L370.641 158.581Z" fill="#CCCCCC"/>
</g>
<defs>
<clipPath id="clip0_1_123">
<rect width="423" height="182" fill="white" transform="translate(-5)"/>
</clipPath>
</defs>
</svg>
